<svg xmlns="http://www.w3.org/2000/svg" viewBox="0 0 75.02 148.5"><defs><style>.cls-1{fill:#c4c5c4;}</style></defs><g id="Layer_2" data-name="Layer 2"><g id="Layer_1-2" data-name="Layer 1"><g id="Explosive_Selected_Category" data-name="Explosive_Selected Category"><g id="Body_Explosive_Bars" data-name="Body Explosive Bars"><path class="cls-1" d="M10,71.25c-.06-.58-.22-1-.85-1a2.3,2.3,0,0,1-2.47-1.93c0-.08-.12-.15-.23-.27a15.46,15.46,0,0,0-4.54,2.16C1.19,70.67,0,71.7,0,72c0,.45.25.55.55.55A5.11,5.11,0,0,0,1.83,72l1.82-.75a6.24,6.24,0,0,1-.24,1.18C3,73.35,2.49,74.22,2,75.1L.52,78a.65.65,0,0,0-.11.22h0a.78.78,0,0,0,0,.16A.59.59,0,0,0,1,79c.28,0,1-1,1.19-1.5.51-.87,1.07-1.7,1.61-2.54l.38.16c0,1.35-1,2.47-1.33,3.73a2.81,2.81,0,0,0-.29.92.72.72,0,0,0,.7.7c.39,0,1-1.22,1.1-1.71v0a17.12,17.12,0,0,1,1-2.18,5,5,0,0,1,.82-.91,4.06,4.06,0,0,1,0,1.2A11.46,11.46,0,0,0,6,78.21a4.58,4.58,0,0,0-.74,1.67.6.6,0,0,0,.6.6c.32,0,.71-.72.75-1.08a4.19,4.19,0,0,0,.18-.54,17.59,17.59,0,0,1,.86-2.33c.13-.28.52-.44.79-.65A16.2,16.2,0,0,1,8,78.78a1.93,1.93,0,0,0-.09.41.42.42,0,0,0,.42.42c.24,0,.53-.43.53-.66h0A19.38,19.38,0,0,0,10,71.25Z"/><g id="_0HdX0I.tif" data-name="0HdX0I.tif"><path class="cls-1" d="M36.67,37.65c-.11-3-.19-6-.36-9a1.38,1.38,0,0,0-.73-.94c-1.39-.54-2.81-1-4.22-1.45a2.19,2.19,0,0,0-3.06,1.32c-.35.75-.76,1.48-1,2.26a7.38,7.38,0,0,1-3.35,4.26c-.19.1-.31.31-.53.54C25.62,36,27.78,37.3,30,38.58a1.22,1.22,0,0,0,.75.13C32.66,38.38,34.6,38,36.67,37.65ZM52,34.5c-3.13-1.23-3.82-4-5-6.42l-.26-.54A2,2,0,0,0,44,26.25c-1.51.47-3,1-4.5,1.54a1.11,1.11,0,0,0-.63.79c-.17,2.74-.27,5.49-.41,8.23,0,.57,0,.9.74,1,1.41.17,2.8.52,4.21.73a3.18,3.18,0,0,0,1.81,0C47.42,37.32,49.55,36,52,34.5ZM27.34,72.25l-.4.06c0,1.31,0,2.63,0,3.94,0,2.43-.35,4.9,0,7.26.74,4.52,1.89,9,2.87,13.44.33,1.49.64,3,1,4.47.07.28.39.5.6.75.17-.25.44-.49.49-.77a18.71,18.71,0,0,0,.21-2c.31-3.51.65-7,.91-10.53.09-1.31.37-2.77-.08-3.91-1.61-4.08-3.49-8-5.27-12.06A6.38,6.38,0,0,0,27.34,72.25ZM47.87,72c-.3.62-.47,1-.63,1.33-1.67,3.77-3.37,7.53-5,11.31a4.53,4.53,0,0,0-.36,2c.29,4,.66,8.08,1,12.12.09,1,.17,1.92.31,2.88a.69.69,0,0,0,.46.48c.18,0,.41-.23.55-.41a1.65,1.65,0,0,0,.16-.57c.91-4.15,1.85-8.29,2.72-12.45.61-2.95,1.55-5.85,1.29-8.94-.19-2.19-.19-4.39-.28-6.58A12,12,0,0,0,47.87,72Zm-1.4,37.65-.26-.06c-.35.81-.63,1.65-1.05,2.42A20.33,20.33,0,0,0,43,122.5a29.93,29.93,0,0,1-1,9.78c-.63,1.95-1,4-1.53,6a3.75,3.75,0,0,0,0,.84c.5-.21.85-.39,1.22-.52a3.07,3.07,0,0,0,2.09-2.48c.87-3.57,2-7.07,2.88-10.64.59-2.34,1.65-4.58,1.11-7.17C47.2,115.43,46.9,112.52,46.47,109.65ZM34.71,138.94a1.83,1.83,0,0,0,0-.47c-.63-2.47-1.34-4.92-1.89-7.41a28.89,28.89,0,0,1-.62-4.73c-.15-3-.15-6.12-.24-9.18a3,3,0,0,0-.26-1.05c-.8-1.94-1.62-3.86-2.44-5.79-.11-.25-.27-.48-.5-.89-.14.54-.24.85-.29,1.18-.35,2.35-.74,4.7-1,7.07a9.28,9.28,0,0,0-.11,3.9c1.45,4.88,2.74,9.81,4.09,14.73A3.36,3.36,0,0,0,34.71,138.94ZM10.83,69.25c2.51-3.29,5.23-6.41,7.41-9.87,1.43-2.27,2.07-5,3.06-7.57a20.41,20.41,0,0,0-2.93,1.41,6.75,6.75,0,0,0-2.86,2.93c-1.69,3.13-3.51,6.19-5.27,9.28C9.44,66.84,9.58,67.88,10.83,69.25ZM54,51.66l-.15.16c.78,2,1.54,4,2.34,6A10.86,10.86,0,0,0,57.31,60c1.44,2,3,3.93,4.46,5.89.86,1.12,1.73,2.22,2.62,3.36,1.37-2,1.39-2.33.27-4.29-1.9-3.32-3.79-6.64-5.7-10a2.12,2.12,0,0,0-.59-.78C56.94,53.37,55.49,52.53,54,51.66ZM17.65,49.22c1.24-1,2.53-1.67,3.2-2.71a17.35,17.35,0,0,0,2.93-8.77,2,2,0,0,0-2.63-2,12.56,12.56,0,0,1-1.21.46,1.44,1.44,0,0,0-1.11,1.23q-.81,3.35-1.68,6.67C16.72,45.78,17.41,47.29,17.65,49.22Zm39.86-.17c.22-1.82,1-3.38.45-5.12a32.16,32.16,0,0,1-1.31-5.22c-.22-2-1.38-2.69-3-3.09l-.09,0c-.78-.19-2.36,1.12-2.26,1.88a22.45,22.45,0,0,0,2.43,8.11C54.59,47.19,56,48,57.51,49.05ZM50.09,63.53c-1.57.66-1.68.78-1.64,2.34,0,1.89.13,3.79.22,5.68.1,2.16.28,4.32.35,6.48a27.87,27.87,0,0,1,0,5.85c-.86,4.7-2,9.34-3,14-.26,1.19-.49,2.38-.74,3.56l.36.22a3.25,3.25,0,0,0,.65-.86c1.15-3.94,2.26-7.9,3.39-11.84.61-2.16,1.47-4.28,1.15-6.61A21.16,21.16,0,0,1,50.58,80c-.09-3.79-.15-7.59-.24-11.38C50.29,66.93,50.18,65.27,50.09,63.53ZM29.92,101.44c0-.22-.05-.44-.1-.66C29,96.89,28.07,93,27.27,89.1A38.4,38.4,0,0,1,26,81.57c0-5,.48-10.1.6-15.15.06-2.24.3-2-1.55-2.84a4.19,4.19,0,0,0-.06.48c-.14,4.59-.26,9.18-.4,13.78,0,.73-.08,1.46-.11,2.19-.12,2.55-.32,5.1.64,7.58a28.74,28.74,0,0,1,.87,3q1.44,5.07,2.87,10.12C29,101.24,29.13,101.84,29.92,101.44Zm6.33-31.17c0-.53.09-.82.1-1.11.08-2.49.06-5,.26-7.47A10.82,10.82,0,0,0,36,57.6c-.07-.26-.28-.63-.48-.66-1.33-.23-2.67-.38-4.13-.58.07.63.1,1.08.17,1.53.49,3,1,6.07,1.5,9.1a2.55,2.55,0,0,0,.5,1.43A26.18,26.18,0,0,0,36.25,70.27Zm2.61,0a26.92,26.92,0,0,0,2.34-1.57A2.37,2.37,0,0,0,42,67.47c.43-2.21.8-4.43,1.17-6.65.24-1.43.44-2.86.68-4.46-1.33.18-2.47.38-3.62.46a1.12,1.12,0,0,0-1.15,1,11.83,11.83,0,0,0-.45,4.2C38.82,64.67,38.78,67.37,38.86,70.29Zm.12,69c-.94,3.07-.28,6,0,8.88,1.39.72,1.8-.14,2.28-1v1.26c1.07-.38,2.05-.79,3.06-1.06,1.34-.36,1.73-1.17,1-2.42a25.76,25.76,0,0,0-1.48-2.48c-.75-1-1.39-2.22-2.77-2.6C40.46,139.77,39.83,139.58,39,139.33Zm-2.74-.18c-1.39.62-2.7.83-3.41,1.6a26.65,26.65,0,0,0-3.24,4.74c-.23.39,0,1.51.26,1.64a32,32,0,0,0,3.82,1.2l.2-1.11c.27.13.35.26.38.4a.94.94,0,0,0,1.1.86c.69,0,.83-.44.87-1,.13-1.82.3-3.64.34-5.46A21.15,21.15,0,0,0,36.24,139.15ZM26.4,51.6A61.71,61.71,0,0,1,26,59c-.36,2,.42,3.14,2,4.12.92.57,1.73,1.3,2.59,2L30.8,65a3.73,3.73,0,0,0,0-1.46,9.91,9.91,0,0,1-.83-4.65c0-1.49-.09-3-.19-4.48a1.24,1.24,0,0,0-.37-.84C28.5,52.92,27.57,52.35,26.4,51.6Zm18,13.4.32.08C46.16,64,47.6,62.83,49,61.68a.85.85,0,0,0,.24-.61q-.15-3.43-.34-6.87c0-.8-.15-1.61-.24-2.5-.73.43-1.33.84-2,1.16a2.37,2.37,0,0,0-1.46,2.64,19.22,19.22,0,0,1,0,2.4c0,1.94.06,3.88-.87,5.7C44.18,64,44.39,64.53,44.42,65ZM59.64,48.11c-.13,1.56-.23,3-.38,4.39a3.91,3.91,0,0,0,.65,2.63c2.49,4,4.94,8,7.43,11.95.13.21.48.3.72.45a2.07,2.07,0,0,0-.06-.8c-1.1-2.13-2.23-4.24-3.34-6.36a3.14,3.14,0,0,1-.46-1.09,28.68,28.68,0,0,0-1.79-7.4A7.31,7.31,0,0,0,59.64,48.11ZM34.8,103.42a2,2,0,0,0,.29-.48q.84-3,1.64-6a1.9,1.9,0,0,0-.06-.88c-.58-2.37-1.16-4.74-1.77-7.1a11.81,11.81,0,0,0-.62-1.52,2.06,2.06,0,0,0-.44,1.12c-.12,1-.22,2.11-.32,3.17-.3,3.23-.61,6.47-.89,9.71a1.12,1.12,0,0,0,.31.84A20.23,20.23,0,0,0,34.8,103.42Zm6.36-16-.26,0c-.21.53-.47,1-.64,1.59s-.35,1.41-.54,2.11c-.88,3.15-1.86,6.29-.31,9.53a11.67,11.67,0,0,1,.53,1.91c.09.29.22.58.34.89,2.81-1.6,2.37-1,2.12-3.42S42,95.35,41.75,93C41.57,91.16,41.36,89.28,41.16,87.41ZM7.05,67.64l.42,0c.2-.3.41-.6.6-.9,2-3.35,4-6.79,6.2-10a8.3,8.3,0,0,0,1.46-6.35c-.12-.69-.18-1.4-.29-2.31-.76.72-1.61,1.19-1.9,1.88a35.14,35.14,0,0,0-2,6.09c-.45,2.07-.66,4.15-1.85,6-1,1.48-1.7,3.08-2.5,4.65A2.65,2.65,0,0,0,7.05,67.64Zm33.33,45.8-.37,0c-.31,1-.65,2-.92,3.07a13.76,13.76,0,0,0,.25,7.42,16.22,16.22,0,0,1,.93,3.52c.12,2.66,0,5.33,0,8a5.71,5.71,0,0,0,.08.71A44.44,44.44,0,0,0,40.38,113.44Zm-5.32-.13c-2.13,4.86-2.2,19.69-.29,22.5,0-2.67,0-5.47,0-8.26a3.63,3.63,0,0,1,.22-1.36,17.51,17.51,0,0,0,1.43-7.06C36.4,117,35.55,115.24,35.06,113.31Zm-7.25-46.5-.27,0c-.05,1.55-.45,3.15.18,4.64,1.91,4.47,3.92,8.89,5.9,13.32.42.94.87,1.86,1.32,2.78a12.3,12.3,0,0,0-.18-2.8,21.42,21.42,0,0,0-1.59-6.22c-1.73-3.63-3.32-7.34-5-11C28.09,67.3,27.94,67.06,27.81,66.81Zm19.47,0c-1,2.17-2,4.33-2.92,6.51-1.66,3.85-3.85,7.51-4,11.87,0,.74-.19,1.48-.29,2.22a1.53,1.53,0,0,0,.63-.74c2-4.51,4-9.07,6.1-13.53A8.94,8.94,0,0,0,47.28,66.79ZM27.64,26.57c-1.86-.35-2-.19-3.3.74a12,12,0,0,0-4.81,6.82c-.1.39-.25.77-.48,1.42a31.44,31.44,0,0,1,3.2-1.63,6.53,6.53,0,0,0,3.85-4.13C26.52,28.69,27.11,27.66,27.64,26.57Zm19.79-.05c1,2.05,2,4,3,6a1.37,1.37,0,0,0,.55.41c.87.47,1.75,1,2.64,1.41.71.36,1.45.7,2.17,1l.19-.18c-.6-1.49-1.16-3-1.81-4.48a4.25,4.25,0,0,0-1-1.33c-.75-.7-1.67-1.25-2.35-2C49.93,26.3,48.82,26.33,47.43,26.52ZM33.13,76.88c.78-1.3,1.41-2.43,2.12-3.5.39-.57.25-.91-.21-1.34-1.75-1.63-3.47-3.3-5.22-5a3.93,3.93,0,0,0-.52-.35l-.33.12a4.81,4.81,0,0,0,.3,1.56,31,31,0,0,1,3.44,7.49A7,7,0,0,0,33.13,76.88ZM42,76.82a2.7,2.7,0,0,0,.33-.51,32,32,0,0,1,3.64-8c.23-.39.1-1,.13-1.51l-.31-.08c-2,1.86-4,3.71-5.92,5.59a.85.85,0,0,0-.13.77C40.42,74.28,41.17,75.48,42,76.82Zm-3.18-26v5.23a1.5,1.5,0,0,0,.36,0c1.53-.6,3-1.58,4.72-1.39a.63.63,0,0,0,.44-.41c0-.86-.07-1.73-.17-2.58a.65.65,0,0,0-.47-.41C42.07,51.12,40.45,51,38.8,50.83Zm-2.5,5.38c.08-1.67.16-3.18.23-4.7,0-.52-.23-.71-.73-.66-.92.1-1.85.16-2.77.3-2.25.35-2.23.37-2.21,2.71,0,.63.19.82.83.91a23.05,23.05,0,0,1,3,.77A16.65,16.65,0,0,1,36.3,56.21Zm0-11.67c-1.73.73-3.34,1.4-4.94,2.1-.13,0-.3.22-.3.35-.08,1-.12,1.93-.16,2.77,1.71-.29,3.23-.52,4.74-.81.25-.05.62-.36.63-.56C36.34,47.17,36.31,46,36.31,44.54Zm7.85,5.22c0-.74,0-1.63,0-2.52a.73.73,0,0,0-.31-.56c-1.62-.72-3.26-1.4-5-2.12,0,1.46,0,2.74,0,4,0,.14.42.33.67.38C41,49.24,42.52,49.48,44.16,49.76ZM57,34.82c.39-2.38.93-4.7-1.11-6.57A15.09,15.09,0,0,1,54.6,26.6c-.16-.2-.4-.47-.59-.47-1,0-2.07.11-3.1.18l-.17.27C54.05,28.41,55.78,31.41,57,34.82ZM24.3,26.45c-1.88-.27-3.74-.82-4.71,1.43a3.69,3.69,0,0,1-.78,1c-1.73,1.79-.74,3.88-.67,5.95A15.06,15.06,0,0,1,24.3,26.45ZM38.9,39.89c0,1.13,0,2,0,2.91a.86.86,0,0,0,.62.55,7.17,7.17,0,0,1,3.54,1.46c.35.22.73.41,1.22.69a9.1,9.1,0,0,0,.21-2.21,2.39,2.39,0,0,0-.88-1.65C42.16,41,40.57,40.49,38.9,39.89Zm-8,5.57c1.73-.87,3.06-2.16,5-2.13.11,0,.3-.19.31-.3.1-1,.17-2,.26-3.18-1.81.64-3.41,1.2-5,1.79-.13,0-.22.24-.32.37C30.27,43.07,30.64,44.19,30.88,45.46Zm11.69,65.45c.51-.53,1-.82,1.09-1.18A6.59,6.59,0,0,1,45.24,106c.52-.55.14-2.09-.41-2.09a15.78,15.78,0,0,0-2.75.22c-.68.12-.93.63-.72,1.35s.37,1.54.54,2.31C42.1,108.68,42.29,109.61,42.57,110.91Zm-10-.37c.43-1.81.89-3.53,1.2-5.28a1.34,1.34,0,0,0-.69-1.13,26.36,26.36,0,0,0-3.44-.38c.14,1,0,1.9.38,2.37a5.8,5.8,0,0,1,1.36,3.33C31.47,110.21,31.84,110.5,32.6,110.54Zm14-58.78c2.37-.47,4.85-5.62,3.92-8.34-.24.36-.44.64-.64.92a24.44,24.44,0,0,1-2.37,3.42A3.47,3.47,0,0,0,46.6,51.76Zm-17.68,0a10.68,10.68,0,0,0-.56-3A27.82,27.82,0,0,0,26,45.37c-.45-.64-.89-1.29-1.37-2C23.83,46.52,26.2,51.46,28.92,51.78Zm29-2a7.88,7.88,0,0,0-.48-11.7,40.47,40.47,0,0,1,1.05,5.77A41.92,41.92,0,0,1,57.89,49.76Zm-23,33c2.58-2.68,1.76-5.84,1.6-9.17A20.23,20.23,0,0,1,35,75.83,3.11,3.11,0,0,0,34,79.06C34.39,80.28,34.6,81.53,34.87,82.77Zm5.43.11c.33-1.69.65-3.28,1-4.87a1,1,0,0,0,0-.66c-.77-1.18-1.57-2.34-2.45-3.64C38.29,77,37.93,80.12,40.3,82.88ZM17.72,38.17c-4,3.45-3.25,9.35-.33,11.52C16,45.8,16.75,42,17.72,38.17ZM42.14,16.83c-2.75,2.45-3.47,5.77-3.43,9.55C40.9,23.42,42.52,20.42,42.14,16.83Zm-5.66,9.61c-.23-1.73-.39-3.47-.73-5.18S34,18.32,33,16.71C32.45,20.72,34.34,23.61,36.48,26.44Zm-2.93,88.3a6.09,6.09,0,0,0,.37-.64c.77-1.87,1.62-3.7,2.27-5.6a7,7,0,0,0-.08-3.89,23.47,23.47,0,0,1-2,4.14C32.64,110.67,33,112.56,33.55,114.74Zm7.86-.14.28-.09c.08-.42.18-.84.23-1.26a5.16,5.16,0,0,0-.4-3.74A50,50,0,0,1,39.33,105a2.65,2.65,0,0,0-.38-.43,7.78,7.78,0,0,0,.84,5.65,13.3,13.3,0,0,1,.67,1.76C40.78,112.83,41.1,113.72,41.41,114.6ZM32.58,21.37l-5.36,2.91.06.19h7Zm8.18,3.07h7l0-.17-5.36-2.89ZM17,53.19c1.26-.93,2.28-1.62,3.21-2.4a3,3,0,0,0,.89-1.31,14.61,14.61,0,0,0,.38-2.24c-1.59,1.58-3.06,3-4.45,4.47C16.8,51.93,17,52.5,17,53.19ZM57.9,53l.31-.1c0-.41.12-1-.09-1.19-1.42-1.46-2.91-2.86-4.56-4.46.32,1.19.32,2.42.92,3.12A19.89,19.89,0,0,0,57.9,53ZM44.83,108.47c2.78-.49,2.77-.49,2.74-3v-3.18l-.33,0Zm-16.94-6.26-.18,0c-.09,1.67-.2,3.34-.25,5a.75.75,0,0,0,.37.59c.73.24,1.49.41,2.48.66Zm.54-54.7.49-.1c-.07-1,.24-2.43-.31-3-.75-.78-1.86-1.83-3.54-1.28Zm21.62-4.39a3.69,3.69,0,0,0-3.72,1.45c-.48.53,0,1.9,0,2.9l.38,0Zm-4.12,1c1.75-1,3-3,2.6-4.28-1,.63-1.91,1.22-2.83,1.85a.62.62,0,0,0-.21.5C45.61,42.78,45.78,43.4,45.93,44.07ZM26.59,39.74c-.3,1.39.91,3.3,2.6,4.31a10,10,0,0,0,.35-1.44c0-.32,0-.81-.16-1C28.53,41,27.6,40.41,26.59,39.74Zm23.79,0-.33-.19-1.85,3C51.39,41.76,50.92,42.18,50.38,39.7Zm-26,2.18,2.3.81.14-.25c-.55-1-.74-2.28-2.07-2.83-.09.42-.19.77-.24,1.12S24.43,41.44,24.38,41.88Zm23.79-2.44c-.82-1.13-1-1.1-3.06.58C45.76,40.72,46.66,40.55,48.17,39.44ZM30,40c-.47-.33-.88-.6-1.27-.91-.76-.59-1.35-.5-1.82.36C28.34,40.46,29.48,40.68,30,40Zm-4.92-3-.43,1.83c.84.7,1.55.5,2.34-.19Zm23,1.67c.72.53,1.5.88,2,.31.31-.33.05-1.19.05-2.1Z"/><path class="cls-1" d="M37.53,0c2.61-.24,3.53.93,5,2a2,2,0,0,1,.53,1.21c.13.82.09,1.67.27,2.47a13.41,13.41,0,0,0,.79,1.84,2.18,2.18,0,0,1,.29,1.06c-.18,1-.18,2.1-1.28,2.86-.44.3-.46,1.42-.4,2.15a2.59,2.59,0,0,1-1.14,2.46A14.25,14.25,0,0,0,40,17.55a3.13,3.13,0,0,1-2,.82c-2.73.4-3.92-1.78-5.46-3.23-.44-.41-.28-1.52-.27-2.31A1.88,1.88,0,0,0,31.37,11c-.9-.61-.84-2.78-.35-3.69a7.62,7.62,0,0,0,.77-3.1,3.34,3.34,0,0,1,1.7-3A6,6,0,0,1,37.53,0Z"/><path class="cls-1" d="M36.67,37.65c-2.07.37-4,.73-6,1.06a1.22,1.22,0,0,1-.75-.13c-2.17-1.28-4.33-2.58-6.57-3.91.22-.23.34-.44.53-.54a7.38,7.38,0,0,0,3.35-4.26c.28-.78.69-1.51,1-2.26a2.19,2.19,0,0,1,3.06-1.32c1.41.45,2.83.91,4.22,1.45a1.38,1.38,0,0,1,.73.94C36.48,31.64,36.56,34.6,36.67,37.65Z"/><path class="cls-1" d="M52,34.5c-2.48,1.48-4.61,2.82-6.82,4a3.18,3.18,0,0,1-1.81,0c-1.41-.21-2.8-.56-4.21-.73-.72-.09-.77-.42-.74-1,.14-2.74.24-5.49.41-8.23a1.11,1.11,0,0,1,.63-.79c1.48-.56,3-1.07,4.5-1.54a2,2,0,0,1,2.8,1.29l.26.54C48.21,30.5,48.9,33.27,52,34.5Z"/><path class="cls-1" d="M27.34,72.25a6.38,6.38,0,0,1,.38.67c1.78,4,3.66,8,5.27,12.06.45,1.14.17,2.6.08,3.91-.26,3.51-.6,7-.91,10.53a18.71,18.71,0,0,1-.21,2c-.05.28-.32.52-.49.77-.21-.25-.53-.47-.6-.75-.37-1.48-.68-3-1-4.47-1-4.48-2.13-8.92-2.87-13.44-.39-2.36-.05-4.83,0-7.26,0-1.31,0-2.63,0-3.94Z"/><path class="cls-1" d="M47.87,72a12,12,0,0,1,.22,1.19c.09,2.19.09,4.39.28,6.58.26,3.09-.68,6-1.29,8.94-.87,4.16-1.81,8.3-2.72,12.45a1.65,1.65,0,0,1-.16.57c-.14.18-.37.42-.55.41a.69.69,0,0,1-.46-.48c-.14-1-.22-1.92-.31-2.88-.34-4-.71-8.08-1-12.12a4.53,4.53,0,0,1,.36-2c1.63-3.78,3.33-7.54,5-11.31C47.4,73,47.57,72.62,47.87,72Z"/><path class="cls-1" d="M46.47,109.65c.43,2.87.73,5.78,1.34,8.62.54,2.59-.52,4.83-1.11,7.17-.89,3.57-2,7.07-2.88,10.64a3.07,3.07,0,0,1-2.09,2.48c-.37.13-.72.31-1.22.52a3.75,3.75,0,0,1,0-.84c.49-2,.9-4,1.53-6a29.93,29.93,0,0,0,1-9.78A20.33,20.33,0,0,1,45.16,112c.42-.77.7-1.61,1.05-2.42Z"/><path class="cls-1" d="M34.71,138.94a3.36,3.36,0,0,1-3.26-2.64c-1.35-4.92-2.64-9.85-4.09-14.73a9.28,9.28,0,0,1,.11-3.9c.25-2.37.64-4.72,1-7.07.05-.33.15-.64.29-1.18.23.41.39.64.5.89.82,1.93,1.64,3.85,2.44,5.79a3,3,0,0,1,.26,1.05c.09,3.06.09,6.13.24,9.18a28.89,28.89,0,0,0,.62,4.73c.55,2.49,1.26,4.94,1.89,7.41A1.83,1.83,0,0,1,34.71,138.94Z"/><path class="cls-1" d="M10.83,69.25c-1.25-1.37-1.39-2.41-.59-3.82,1.76-3.09,3.58-6.15,5.27-9.28a6.75,6.75,0,0,1,2.86-2.93,20.41,20.41,0,0,1,2.93-1.41c-1,2.54-1.63,5.3-3.06,7.57C16.06,62.84,13.34,66,10.83,69.25Z"/><path class="cls-1" d="M54,51.66c1.45.87,2.9,1.71,4.33,2.6A2.12,2.12,0,0,1,59,55c1.91,3.32,3.8,6.64,5.7,10,1.12,2,1.1,2.26-.27,4.29-.89-1.14-1.76-2.24-2.62-3.36-1.5-2-3-3.9-4.46-5.89a10.86,10.86,0,0,1-1.08-2.22c-.8-2-1.56-4-2.34-6Z"/><path class="cls-1" d="M17.65,49.22c-.24-1.93-.93-3.44-.5-5.11q.87-3.33,1.68-6.67a1.44,1.44,0,0,1,1.11-1.23,12.56,12.56,0,0,0,1.21-.46,2,2,0,0,1,2.63,2,17.35,17.35,0,0,1-2.93,8.77C20.18,47.55,18.89,48.2,17.65,49.22Z"/><path class="cls-1" d="M57.51,49.05c-1.54-1-2.92-1.86-3.81-3.47a22.45,22.45,0,0,1-2.43-8.11c-.1-.76,1.48-2.07,2.26-1.88l.09,0c1.65.4,2.81,1.13,3,3.09A32.16,32.16,0,0,0,58,43.93C58.46,45.67,57.73,47.23,57.51,49.05Z"/><path class="cls-1" d="M50.09,63.53c.09,1.74.2,3.4.25,5.06.09,3.79.15,7.59.24,11.38a21.16,21.16,0,0,0,.16,2.39c.32,2.33-.54,4.45-1.15,6.61-1.13,3.94-2.24,7.9-3.39,11.84a3.25,3.25,0,0,1-.65.86l-.36-.22c.25-1.18.48-2.37.74-3.56,1-4.67,2.19-9.31,3-14A27.87,27.87,0,0,0,49,78c-.07-2.16-.25-4.32-.35-6.48-.09-1.89-.17-3.79-.22-5.68C48.41,64.31,48.52,64.19,50.09,63.53Z"/><path class="cls-1" d="M29.92,101.44c-.79.4-.89-.2-1-.66Q27.46,95.73,26,90.66a28.74,28.74,0,0,0-.87-3c-1-2.48-.76-5-.64-7.58,0-.73.09-1.46.11-2.19.14-4.6.26-9.19.4-13.78a4.19,4.19,0,0,1,.06-.48c1.85.79,1.61.6,1.55,2.84-.12,5-.61,10.1-.6,15.15a38.4,38.4,0,0,0,1.23,7.53c.8,3.9,1.7,7.79,2.55,11.68C29.87,101,29.89,101.22,29.92,101.44Z"/><path class="cls-1" d="M36.25,70.27a26.18,26.18,0,0,1-2.7-1.85,2.55,2.55,0,0,1-.5-1.43c-.52-3-1-6.07-1.5-9.1-.07-.45-.1-.9-.17-1.53,1.46.2,2.8.35,4.13.58.2,0,.41.4.48.66a10.82,10.82,0,0,1,.62,4.09c-.2,2.48-.18,5-.26,7.47C36.34,69.45,36.3,69.74,36.25,70.27Z"/><path class="cls-1" d="M38.86,70.29c-.08-2.92,0-5.62-.27-8.29A11.83,11.83,0,0,1,39,57.8a1.12,1.12,0,0,1,1.15-1c1.15-.08,2.29-.28,3.62-.46-.24,1.6-.44,3-.68,4.46-.37,2.22-.74,4.44-1.17,6.65a2.37,2.37,0,0,1-.76,1.25A26.92,26.92,0,0,1,38.86,70.29Z"/><path class="cls-1" d="M39,139.33c.85.25,1.48.44,2.12.61,1.38.38,2,1.57,2.77,2.6A25.76,25.76,0,0,1,45.35,145c.7,1.25.31,2.06-1,2.42-1,.27-2,.68-3.06,1.06v-1.26c-.48.83-.89,1.69-2.28,1C38.7,145.37,38,142.4,39,139.33Z"/><path class="cls-1" d="M36.24,139.15a21.15,21.15,0,0,1,.32,2.9c0,1.82-.21,3.64-.34,5.46,0,.53-.18.94-.87,1a.94.94,0,0,1-1.1-.86c0-.14-.11-.27-.38-.4l-.2,1.11a32,32,0,0,1-3.82-1.2c-.29-.13-.49-1.25-.26-1.64a26.65,26.65,0,0,1,3.24-4.74C33.54,140,34.85,139.77,36.24,139.15Z"/><path class="cls-1" d="M26.4,51.6c1.17.75,2.1,1.32,3,1.95a1.24,1.24,0,0,1,.37.84c.1,1.49.21,3,.19,4.48a9.91,9.91,0,0,0,.83,4.65,3.73,3.73,0,0,1,0,1.46l-.28.12c-.86-.66-1.67-1.39-2.59-2-1.55-1-2.33-2.08-2-4.12A61.71,61.71,0,0,0,26.4,51.6Z"/><path class="cls-1" d="M44.42,65c0-.47-.24-1-.05-1.4.93-1.82.85-3.76.87-5.7a19.22,19.22,0,0,0,0-2.4,2.37,2.37,0,0,1,1.46-2.64c.64-.32,1.24-.73,2-1.16.09.89.2,1.7.24,2.5q.2,3.44.34,6.87a.85.85,0,0,1-.24.61c-1.41,1.15-2.85,2.27-4.27,3.4Z"/><path class="cls-1" d="M59.64,48.11a7.31,7.31,0,0,1,2.77,3.77,28.68,28.68,0,0,1,1.79,7.4,3.14,3.14,0,0,0,.46,1.09c1.11,2.12,2.24,4.23,3.34,6.36a2.07,2.07,0,0,1,.06.8c-.24-.15-.59-.24-.72-.45-2.49-4-4.94-8-7.43-11.95a3.91,3.91,0,0,1-.65-2.63C59.41,51.09,59.51,49.67,59.64,48.11Z"/><path class="cls-1" d="M34.8,103.42a20.23,20.23,0,0,1-1.86-1.17,1.12,1.12,0,0,1-.31-.84c.28-3.24.59-6.48.89-9.71.1-1.06.2-2.12.32-3.17a2.06,2.06,0,0,1,.44-1.12,11.81,11.81,0,0,1,.62,1.52c.61,2.36,1.19,4.73,1.77,7.1a1.9,1.9,0,0,1,.06.88q-.79,3-1.64,6A2,2,0,0,1,34.8,103.42Z"/><path class="cls-1" d="M41.16,87.41c.2,1.87.41,3.75.59,5.62.23,2.32.4,4.63.65,6.94s.69,1.82-2.12,3.42c-.12-.31-.25-.6-.34-.89a11.67,11.67,0,0,0-.53-1.91c-1.55-3.24-.57-6.38.31-9.53.19-.7.32-1.42.54-2.11s.43-1.06.64-1.59Z"/><path class="cls-1" d="M7.05,67.64a2.65,2.65,0,0,1,.1-.91c.8-1.57,1.55-3.17,2.5-4.65,1.19-1.85,1.4-3.93,1.85-6a35.14,35.14,0,0,1,2-6.09c.29-.69,1.14-1.16,1.9-1.88.11.91.17,1.62.29,2.31a8.3,8.3,0,0,1-1.46,6.35c-2.23,3.23-4.15,6.67-6.2,10-.19.3-.4.6-.6.9Z"/><path class="cls-1" d="M40.38,113.44a44.44,44.44,0,0,1-.06,22.67,5.71,5.71,0,0,1-.08-.71c0-2.66.15-5.33,0-8a16.22,16.22,0,0,0-.93-3.52,13.76,13.76,0,0,1-.25-7.42c.27-1,.61-2,.92-3.07Z"/><path class="cls-1" d="M35.06,113.31c.49,1.93,1.34,3.73,1.37,5.82A17.51,17.51,0,0,1,35,126.19a3.63,3.63,0,0,0-.22,1.36c0,2.79,0,5.59,0,8.26C32.86,133,32.93,118.17,35.06,113.31Z"/><path class="cls-1" d="M27.81,66.81c.13.25.28.49.39.75,1.65,3.67,3.24,7.38,5,11a21.42,21.42,0,0,1,1.59,6.22,12.3,12.3,0,0,1,.18,2.8c-.45-.92-.9-1.84-1.32-2.78-2-4.43-4-8.85-5.9-13.32-.63-1.49-.23-3.09-.18-4.64Z"/><path class="cls-1" d="M47.28,66.79a8.94,8.94,0,0,1-.5,6.33c-2.14,4.46-4.08,9-6.1,13.53a1.53,1.53,0,0,1-.63.74c.1-.74.26-1.48.29-2.22.17-4.36,2.36-8,4-11.87C45.31,71.12,46.31,69,47.28,66.79Z"/><path class="cls-1" d="M27.64,26.57c-.53,1.09-1.12,2.12-1.54,3.22a6.53,6.53,0,0,1-3.85,4.13,31.44,31.44,0,0,0-3.2,1.63c.23-.65.38-1,.48-1.42a12,12,0,0,1,4.81-6.82C25.61,26.38,25.78,26.22,27.64,26.57Z"/><path class="cls-1" d="M47.43,26.52c1.39-.19,2.5-.22,3.44.84.68.76,1.6,1.31,2.35,2a4.25,4.25,0,0,1,1,1.33c.65,1.48,1.21,3,1.81,4.48l-.19.18c-.72-.35-1.46-.69-2.17-1-.89-.46-1.77-.94-2.64-1.41a1.37,1.37,0,0,1-.55-.41C49.45,30.54,48.47,28.57,47.43,26.52Z"/><path class="cls-1" d="M33.13,76.88a7,7,0,0,1-.42-1,31,31,0,0,0-3.44-7.49,4.81,4.81,0,0,1-.3-1.56l.33-.12a3.93,3.93,0,0,1,.52.35c1.75,1.65,3.47,3.32,5.22,5,.46.43.6.77.21,1.34C34.54,74.45,33.91,75.58,33.13,76.88Z"/><path class="cls-1" d="M42,76.82c-.81-1.34-1.56-2.54-2.26-3.77a.85.85,0,0,1,.13-.77c2-1.88,3.95-3.73,5.92-5.59l.31.08c0,.51.1,1.12-.13,1.51a32,32,0,0,0-3.64,8A2.7,2.7,0,0,1,42,76.82Z"/><path class="cls-1" d="M38.8,50.83c1.65.15,3.27.29,4.88.47a.65.65,0,0,1,.47.41c.1.85.15,1.72.17,2.58a.63.63,0,0,1-.44.41c-1.77-.19-3.19.79-4.72,1.39a1.5,1.5,0,0,1-.36,0Z"/><path class="cls-1" d="M36.3,56.21a16.65,16.65,0,0,0-1.63-.67,23.05,23.05,0,0,0-3-.77c-.64-.09-.83-.28-.83-.91,0-2.34,0-2.36,2.21-2.71.92-.14,1.85-.2,2.77-.3.5-.05.76.14.73.66C36.46,53,36.38,54.54,36.3,56.21Z"/><path class="cls-1" d="M36.31,44.54c0,1.41,0,2.63,0,3.85,0,.2-.38.51-.63.56-1.51.29-3,.52-4.74.81,0-.84.08-1.81.16-2.77,0-.13.17-.3.3-.35C33,45.94,34.58,45.27,36.31,44.54Z"/><path class="cls-1" d="M44.16,49.76c-1.64-.28-3.13-.52-4.6-.8-.25-.05-.66-.24-.67-.38,0-1.28,0-2.56,0-4,1.71.72,3.35,1.4,5,2.12a.73.73,0,0,1,.31.56C44.18,48.13,44.16,49,44.16,49.76Z"/><path class="cls-1" d="M57,34.82c-1.21-3.41-2.94-6.41-6.25-8.24l.17-.27c1-.07,2.06-.16,3.1-.18.19,0,.43.27.59.47a15.09,15.09,0,0,0,1.28,1.65C57.92,30.12,57.38,32.44,57,34.82Z"/><path class="cls-1" d="M24.3,26.45a15.06,15.06,0,0,0-6.16,8.41c-.07-2.07-1.06-4.16.67-5.95a3.69,3.69,0,0,0,.78-1C20.56,25.63,22.42,26.18,24.3,26.45Z"/><path class="cls-1" d="M38.9,39.89c1.67.6,3.26,1.06,4.74,1.75a2.39,2.39,0,0,1,.88,1.65,9.1,9.1,0,0,1-.21,2.21c-.49-.28-.87-.47-1.22-.69a7.17,7.17,0,0,0-3.54-1.46.86.86,0,0,1-.62-.55C38.86,41.92,38.9,41,38.9,39.89Z"/><path class="cls-1" d="M30.88,45.46c-.24-1.27-.61-2.39.2-3.45.1-.13.19-.32.32-.37,1.6-.59,3.2-1.15,5-1.79-.09,1.22-.16,2.2-.26,3.18,0,.11-.2.31-.31.3C33.94,43.3,32.61,44.59,30.88,45.46Z"/><path class="cls-1" d="M42.57,110.91c-.28-1.3-.47-2.23-.67-3.16-.17-.77-.32-1.55-.54-2.31s0-1.23.72-1.35a15.78,15.78,0,0,1,2.75-.22c.55,0,.93,1.54.41,2.09a6.59,6.59,0,0,0-1.58,3.77C43.6,110.09,43.08,110.38,42.57,110.91Z"/><path class="cls-1" d="M32.6,110.54c-.76,0-1.13-.33-1.19-1.09a5.8,5.8,0,0,0-1.36-3.33c-.39-.47-.24-1.39-.38-2.37a26.36,26.36,0,0,1,3.44.38,1.34,1.34,0,0,1,.69,1.13C33.49,107,33,108.73,32.6,110.54Z"/><path class="cls-1" d="M46.6,51.76a3.47,3.47,0,0,1,.91-4,24.44,24.44,0,0,0,2.37-3.42c.2-.28.4-.56.64-.92C51.45,46.14,49,51.29,46.6,51.76Z"/><path class="cls-1" d="M28.92,51.78c-2.72-.32-5.09-5.26-4.32-8.42.48.72.92,1.37,1.37,2a27.82,27.82,0,0,1,2.39,3.4A10.68,10.68,0,0,1,28.92,51.78Z"/><path class="cls-1" d="M57.89,49.76a41.92,41.92,0,0,0,.57-5.93,40.47,40.47,0,0,0-1.05-5.77A7.88,7.88,0,0,1,57.89,49.76Z"/><path class="cls-1" d="M34.87,82.77c-.27-1.24-.48-2.49-.84-3.71A3.11,3.11,0,0,1,35,75.83a20.23,20.23,0,0,0,1.52-2.23C36.63,76.93,37.45,80.09,34.87,82.77Z"/><path class="cls-1" d="M40.3,82.88c-2.37-2.76-2-5.85-1.55-9.17.88,1.3,1.68,2.46,2.45,3.64a1,1,0,0,1,0,.66C41,79.6,40.63,81.19,40.3,82.88Z"/><path class="cls-1" d="M17.72,38.17c-1,3.81-1.68,7.63-.33,11.52C14.47,47.52,13.67,41.62,17.72,38.17Z"/><path class="cls-1" d="M42.14,16.83c.38,3.59-1.24,6.59-3.43,9.55C38.67,22.6,39.39,19.28,42.14,16.83Z"/><path class="cls-1" d="M36.48,26.44c-2.14-2.83-4-5.72-3.51-9.73,1,1.61,2.43,2.76,2.78,4.55S36.25,24.71,36.48,26.44Z"/><path class="cls-1" d="M33.55,114.74c-.51-2.18-.91-4.07.53-6a23.47,23.47,0,0,0,2-4.14,7,7,0,0,1,.08,3.89c-.65,1.9-1.5,3.73-2.27,5.6A6.09,6.09,0,0,1,33.55,114.74Z"/><path class="cls-1" d="M41.41,114.6c-.31-.88-.63-1.77-.95-2.65a13.3,13.3,0,0,0-.67-1.76,7.78,7.78,0,0,1-.84-5.65,2.65,2.65,0,0,1,.38.43,50,50,0,0,0,2.19,4.54,5.16,5.16,0,0,1,.4,3.74c-.05.42-.15.84-.23,1.26Z"/><path class="cls-1" d="M32.58,21.37l1.7,3.1h-7l-.06-.19Z"/><path class="cls-1" d="M40.76,24.44l1.69-3.06,5.36,2.89,0,.17Z"/><path class="cls-1" d="M17,53.19c0-.69-.18-1.26,0-1.48,1.39-1.48,2.86-2.89,4.45-4.47a14.61,14.61,0,0,1-.38,2.24,3,3,0,0,1-.89,1.31C19.26,51.57,18.24,52.26,17,53.19Z"/><path class="cls-1" d="M57.9,53a19.89,19.89,0,0,1-3.42-2.63c-.6-.7-.6-1.93-.92-3.12,1.65,1.6,3.14,3,4.56,4.46.21.22.07.78.09,1.19Z"/><path class="cls-1" d="M44.83,108.47l2.41-6.19.33,0v3.18C47.6,108,47.61,108,44.83,108.47Z"/><path class="cls-1" d="M27.89,102.21l2.42,6.3c-1-.25-1.75-.42-2.48-.66a.75.75,0,0,1-.37-.59c.05-1.67.16-3.34.25-5Z"/><path class="cls-1" d="M28.43,47.51l-3.36-4.38c1.68-.55,2.79.5,3.54,1.28.55.57.24,2,.31,3Z"/><path class="cls-1" d="M50.05,43.12l-3.33,4.39-.38,0c0-1-.49-2.37,0-2.9A3.69,3.69,0,0,1,50.05,43.12Z"/><path class="cls-1" d="M45.93,44.07c-.15-.67-.32-1.29-.44-1.93a.62.62,0,0,1,.21-.5c.92-.63,1.86-1.22,2.83-1.85C48.9,41.09,47.68,43,45.93,44.07Z"/><path class="cls-1" d="M26.59,39.74c1,.67,1.94,1.25,2.79,1.91.19.15.2.64.16,1a10,10,0,0,1-.35,1.44C27.5,43,26.29,41.13,26.59,39.74Z"/><path class="cls-1" d="M50.38,39.7c.54,2.48,1,2.06-2.18,2.77l1.85-3Z"/><path class="cls-1" d="M24.38,41.88c.05-.44.07-.8.13-1.15s.15-.7.24-1.12c1.33.55,1.52,1.82,2.07,2.83l-.14.25Z"/><path class="cls-1" d="M48.17,39.44c-1.51,1.11-2.41,1.28-3.06.58C47.16,38.34,47.35,38.31,48.17,39.44Z"/><path class="cls-1" d="M30,40c-.55.71-1.69.49-3.09-.55.47-.86,1.06-1,1.82-.36C29.15,39.37,29.56,39.64,30,40Z"/><path class="cls-1" d="M25.11,37,27,38.6c-.79.69-1.5.89-2.34.19Z"/><path class="cls-1" d="M48.09,38.63l2.08-1.79c0,.91.26,1.77-.05,2.1C49.59,39.51,48.81,39.16,48.09,38.63Z"/></g><path class="cls-1" d="M65.05,71.21c.07-.58.23-1,.85-1a2.29,2.29,0,0,0,2.47-1.93c0-.08.13-.15.24-.27a15.4,15.4,0,0,1,4.53,2.16C73.82,70.63,75,71.66,75,72c0,.45-.24.54-.54.54a5.37,5.37,0,0,1-1.28-.5l-1.83-.76a5.41,5.41,0,0,0,.25,1.18c.43.9.91,1.77,1.37,2.65S74,77,74.49,78a.94.94,0,0,1,.12.22h0a.88.88,0,0,1,0,.16.6.6,0,0,1-.6.6c-.27,0-1-1-1.18-1.5-.51-.86-1.07-1.7-1.61-2.54l-.39.16c0,1.35,1,2.47,1.34,3.73a3,3,0,0,1,.28.92.72.72,0,0,1-.7.7c-.38,0-1-1.22-1.1-1.71v0a15.84,15.84,0,0,0-1-2.18,5,5,0,0,0-.82-.91,4.42,4.42,0,0,0,0,1.2,10,10,0,0,1,.24,1.38,4.62,4.62,0,0,1,.75,1.67.6.6,0,0,1-.61.6c-.32,0-.71-.72-.74-1.08a2.94,2.94,0,0,1-.19-.54,16.29,16.29,0,0,0-.86-2.33c-.13-.28-.52-.44-.79-.65a17,17,0,0,0,.41,2.9,1.45,1.45,0,0,1,.09.41.42.42,0,0,1-.42.42c-.23,0-.52-.43-.52-.66h0A19.21,19.21,0,0,1,65.05,71.21Z"/></g></g></g></g></svg>