<svg xmlns="http://www.w3.org/2000/svg" viewBox="0 0 102.18 134.8"><defs><style>.cls-1{fill:#313c4c;}</style></defs><g id="Layer_2" data-name="Layer 2"><g id="Layer_1-2" data-name="Layer 1"><polygon class="cls-1" points="102.18 87.08 51.09 48.69 51.09 48.69 51.09 48.69 51.09 48.69 51.09 48.69 0 87.08 0 111.31 51.09 72.92 102.18 111.31 102.18 87.08"/><polygon class="cls-1" points="102.18 38.39 51.09 0 51.09 0 51.09 0 51.09 0 51.09 0 0 38.39 0 74.91 51.09 36.52 102.18 74.91 102.18 38.39"/><polygon class="cls-1" points="102.18 122.85 51.09 84.46 51.09 84.46 51.09 84.46 51.09 84.46 51.09 84.46 0 122.85 0 134.8 51.09 96.41 102.18 134.8 102.18 122.85"/></g></g></svg>