<svg xmlns="http://www.w3.org/2000/svg" viewBox="0 0 107.16 107.46"><defs><style>.cls-1{fill:#313c4c;}</style></defs><g id="Layer_2" data-name="Layer 2"><g id="Layer_1-2" data-name="Layer 1"><path class="cls-1" d="M0,47.15V61L9.33,63.1a45.19,45.19,0,0,0,6.63,16l-5.1,8L20.66,97l8.06-5.15a45,45,0,0,0,16.05,6.53l2.1,9.12H60.72l2.1-9.12a44.62,44.62,0,0,0,16-6.42L86.91,97l9.77-9.8-5.15-8.07a44.7,44.7,0,0,0,6.52-16l9.11-2.1V47.15l-9.11-2.1A44.63,44.63,0,0,0,91.64,29l5.09-8.07-9.79-9.81-8.06,5.06A45.38,45.38,0,0,0,62.82,9.46L60.73,0H46.87l-2.1,9.47a45.24,45.24,0,0,0-16,6.77l-8.07-5.1-9.8,9.8L16,29a45.11,45.11,0,0,0-6.63,16Zm22.85,5.24,15.47-26H69.27l15.47,26-15.47,26H38.32Z"/></g></g></svg>