<svg xmlns="http://www.w3.org/2000/svg" viewBox="0 0 126.82 126.82"><defs><style>.cls-1{fill:#313c4c;}</style></defs><g id="Layer_2" data-name="Layer 2"><g id="Layer_1-2" data-name="Layer 1"><path class="cls-1" d="M63.41,0a63.41,63.41,0,1,0,63.41,63.41A63.41,63.41,0,0,0,63.41,0Zm0,115.34a51.93,51.93,0,1,1,51.93-51.93A51.93,51.93,0,0,1,63.41,115.34Z"/><path class="cls-1" d="M63.41,14.48a48.93,48.93,0,1,0,48.93,48.93A49,49,0,0,0,63.41,14.48Zm0,59.83a10.9,10.9,0,1,1,10.9-10.9A10.9,10.9,0,0,1,63.41,74.31Z"/></g></g></svg>