<svg xmlns="http://www.w3.org/2000/svg" viewBox="0 0 126.82 126.82"><defs><style>.cls-1{fill:#313c4c;}</style></defs><g id="Layer_2" data-name="Layer 2"><g id="Layer_1-2" data-name="Layer 1"><path class="cls-1" d="M63.41,0a63.41,63.41,0,1,0,63.41,63.41A63.41,63.41,0,0,0,63.41,0Zm0,112.71a49.3,49.3,0,1,1,49.3-49.3A49.29,49.29,0,0,1,63.41,112.71Z"/><path class="cls-1" d="M63.41,30.19A33.23,33.23,0,1,0,96.64,63.41,33.22,33.22,0,0,0,63.41,30.19Zm0,48.83A15.61,15.61,0,1,1,79,63.41,15.6,15.6,0,0,1,63.41,79Z"/></g></g></svg>