<?xml version="1.0" encoding="utf-8"?>
<!-- Generator: Adobe Illustrator 19.0.0, SVG Export Plug-In . SVG Version: 6.00 Build 0)  -->
<svg version="1.1" id="Layer_1" xmlns="http://www.w3.org/2000/svg" xmlns:xlink="http://www.w3.org/1999/xlink" x="0px" y="0px"
	 viewBox="0 0 500 500" style="enable-background:new 0 0 500 500;" xml:space="preserve">
<style type="text/css">
	.st0{fill:#FFFFFF;}
	.st1{fill:#CC0000;}
	.st2{fill:#231F20;}
</style>
<g id="XMLID_1_">
	<path id="XMLID_5_" class="st0" d="M380,182.4h-13.5v103.4l-0.1,0.1L337,319.9h-83.6l-29.4-34.1l-0.1-0.1V182.4h-13.5v-46H291v46
		h-8.6v86.9h25.6v-86.9h-8.6v-46H380L380,182.4L380,182.4z M295.2,89.4c-67,0-121.2,56.9-121.2,127c0,70.1,54.3,127,121.2,127
		c66.9,0,121.2-56.9,121.2-127C416.4,146.2,362.1,89.4,295.2,89.4"/>
	<path id="XMLID_10_" class="st0" d="M143.8,248.6l-1.8-14.5l0-0.3l1-14l5.8,0.4c0,0-0.9,13.1-0.9,13.7c0.1,0.6,1.7,13.9,1.7,13.9
		L143.8,248.6L143.8,248.6z M139.7,325.7c0,0-2-23.1-2.1-23.7c-0.2-0.6-5-17.1-5-17.1s5.6-14.8,6-15.8v-8.1h5.8v9.2
		c0,0-5,13.2-5.6,14.9c0.5,1.8,4.6,15.7,4.6,15.7l2.1,24.3L139.7,325.7L139.7,325.7z M98.2,361.9h-5.8v-8.8c-0.6-0.6-2-2.2-2-2.2
		l0-1.2l0.5-23.9l5.8,0.1c0,0-0.4,20.4-0.5,22.6c0.6,0.6,1.9,2.2,1.9,2.2V361.9L98.2,361.9z M158.7,149.2c-0.3,0.3-0.6,0.6-1,0.9
		l-5,18.8l-0.2,0.4l-8.1,13.9c0,0-9.4,26.5-9.7,27.3c-0.1,0.8-1.3,19.3-1.3,19.3s-14.2,18-15.4,19.5v12.9c0.5,1.1,3.4,7.3,3.4,7.3
		l-0.4,7.7l-5.8-0.3c0,0,0.2-4.9,0.3-6.2c-0.5-1.1-3.4-7.2-3.4-7.2v-16.5c0,0,14.5-18.3,15.5-19.7c0.1-1.8,1.2-18.2,1.2-18.2
		l0.1-0.4c0,0,9.8-27.8,10.1-28.3c0,0,7.8-13.3,8.2-14c0.1-0.3,1.1-4.1,2.3-8.5c-23.9,24.6-75.5,92-76.1,214
		c2.5,1.1,10.8,4.7,10.8,4.7s0.1,6.9,0.2,8.7c0.4,0.3,0.5,0.4,0.9,0.8c2.1-1.8,6.5-5.5,6.5-5.5h4.5c0,0,4.3,5.6,5.5,7
		c0.8,0.1,1.4,0.2,2.5,0.3c1.2-2.1,4-6.9,4-6.9s12.8-14,14.1-15.4c0.1-1.6,1.1-12.4,1.4-15.5L108.1,317l0.5-10.4
		c0,0,5.8-9.9,6.7-11.3c0-0.5-0.1-0.8-0.1-1.4c-0.9-1-3.7-4.4-3.7-4.4v-5.9h5.8v3.6c0.9,1.1,3.6,4.2,3.6,4.2l0.3,5.4
		c0,0-6.2,10.5-6.9,11.7c-0.1,1.2-0.3,6.1-0.4,7.2c0.6,1.4,14.6,30.8,15.1,31.9l8.3,7.4c0.7-3.6,2.1-11.8,2.1-11.8s8.4,0.8,11.1,1.1
		c1.2-2.8,5.4-12.4,5.4-12.4s5.6,0.1,8.1,0.2c0.6-3.2,2.5-12.5,2.5-12.5s3-0.2,3.7-0.2c0.6-2.2,1.4-5.1,1.7-6.1
		c-0.4-1.6-6.1-23.6-6.1-23.6l0.2-0.8l3.6-14c-7.6-17.9-11.9-37.7-11.9-58.5c0-24.2,5.8-47.1,15.9-67.1H158.7L158.7,149.2z"/>
	<polygon id="XMLID_11_" class="st0" points="169.2,111.2 160.6,133.6 169.2,133.6 	"/>
	<polygon id="XMLID_12_" class="st1" points="299.4,136.4 299.4,182.4 307.9,182.4 307.9,269.3 282.4,269.3 282.4,182.4 
		290.9,182.4 290.9,136.4 210.3,136.4 210.3,182.4 223.9,182.4 223.9,285.7 223.9,285.8 253.3,319.9 337,319.9 366.4,285.8 
		366.5,285.7 366.5,182.4 380,182.4 380,136.4 299.4,136.4 	"/>
	<path id="XMLID_13_" class="st1" d="M107.3,394.5l-8.5-1.1c0,0-3.8-4.8-5.1-6.5c-1.5,1.2-8.5,7.1-8.5,7.1l-6.5-5.8
		c0,0-0.1-5.2-0.2-7.5c-1-0.4-3.1-1.3-5.2-2.2c0,2.5-0.1,5.4-0.1,6.4c0.9,1,3.1,3.5,3.1,3.5s-0.3,7.8-0.3,9.3
		c0.8,1.3,7.2,12.5,7.9,13.7c1.1,0.6,6.7,3.9,6.7,3.9s0.8,4,1.2,6.2h0.8c0.9-1,2.9-3,2.9-3s4.4-2,6-2.7c0.7-2.1,4.7-14,4.7-14
		s3.7-1.3,5.1-1.7c1.1-2.6,3.7-8.9,3.7-8.9c0,0,1.8-6.2,3.7-12.6c-3,3.3-5.7,6.2-5.9,6.4C112.6,385.3,107.3,394.5,107.3,394.5"/>
	<path id="XMLID_14_" class="st1" d="M107.3,393.7l-8.5-1.1l-0.1,0.7l0.6-0.5c0,0-3.8-4.8-5.1-6.5l-0.5-0.6l-0.6,0.5
		c-1.5,1.2-8.5,7.1-8.5,7.1l0.5,0.6l0.5-0.6l-6.5-5.8l-0.5,0.6l0.8,0c0,0-0.1-5.2-0.2-7.5l0-0.5l-0.4-0.2c-1-0.4-3.1-1.3-5.2-2.2
		l-1-0.5l0,1.1c0,2.5-0.1,5.4-0.1,6.4l0,0.3l0.2,0.2c0.9,1,3.1,3.5,3.1,3.5l0.6-0.5l-0.8,0c0,0-0.3,7.8-0.3,9.3l0,0.2l0.1,0.2
		c0.8,1.3,7.2,12.5,7.9,13.8l0.1,0.2l0.2,0.1c1.1,0.6,6.7,3.9,6.7,3.9l0.4-0.6l-0.7,0.1c0,0,0.8,4,1.2,6.2l0.1,0.6h1.5h0.3l0.2-0.2
		c0.9-1,2.9-3,2.9-3l-0.5-0.5l0.3,0.7c0,0,4.4-2,6-2.7l0.3-0.1l0.1-0.3c0.7-2.1,4.7-14,4.7-14l-0.7-0.2l0.2,0.7c0,0,3.7-1.3,5.1-1.7
		l0.3-0.1l0.1-0.3c0.5-1.3,1.4-3.5,2.2-5.5c0.4-1,0.8-1.8,1-2.5c0.1-0.3,0.2-0.6,0.3-0.8l0.1-0.2l0,0l0,0l0,0l0,0l0,0l0,0l-0.6-0.3
		l0.6,0.3l0,0l-0.6-0.3l0.6,0.3L115,391l0.6,0.4l0,0L115,391l0.6,0.4L115,391l0.6,0.5l0.1-0.1L115,391l0.6,0.5L115,391l0.5,0.6
		l0.1-0.1L115,391l0.5,0.6L115,391v0.8c0.3,0,0.4-0.1,0.5-0.2L115,391v0.8h0.6l0.2-0.5c0,0,1.8-6.2,3.7-12.6l-1.3-0.7
		c-1.5,1.7-2.9,3.2-4,4.4c-0.5,0.6-1,1.1-1.3,1.4c-0.3,0.3-0.5,0.6-0.5,0.6l-0.1,0.1l-0.1,0.1c-0.1,0.2-1.6,2.7-2.9,5
		c-1.4,2.4-2.7,4.6-2.7,4.6l1.3,0.8c0,0,5.3-9.1,5.6-9.7l-0.7-0.4l0.5,0.5c0.1-0.1,0.3-0.3,0.6-0.6c1-1.1,3-3.3,5.3-5.8l-0.6-0.5
		l-0.7-0.2c-0.9,3.2-1.9,6.3-2.6,8.7c-0.7,2.3-1.2,3.9-1.2,3.9l0.7,0.2v-0.8c-0.3,0-0.4,0.1-0.5,0.2l-0.1,0.2l-0.1,0.1l-0.1,0.1
		c-0.3,0.8-2.6,6.4-3.6,8.9l0.7,0.3l-0.2-0.7c-1.4,0.5-5.1,1.7-5.1,1.7l-0.4,0.1l-0.1,0.4c0,0-1,3-2.1,6.2c-1.1,3.2-2.2,6.8-2.6,7.8
		l0.7,0.2l-0.3-0.7c-0.8,0.4-2.3,1.1-3.6,1.6c-1.3,0.6-2.4,1.1-2.4,1.1l-0.1,0.1l-0.1,0.1c0,0-1.9,2-2.9,3l0.5,0.5v-0.8h-0.8v0.8
		l0.7-0.1c-0.4-2.2-1.2-6.2-1.2-6.2l-0.1-0.3l-0.3-0.2c0,0-1.4-0.8-2.9-1.7c-1.5-0.9-3.2-1.9-3.8-2.2l-0.4,0.6l0.7-0.4
		c-0.7-1.2-7.1-12.4-7.9-13.7l-0.7,0.4l0.8,0c0-0.7,0.1-3,0.2-5.2c0.1-2.1,0.1-4.1,0.1-4.1l0-0.3l-0.2-0.2c0,0-2.3-2.5-3.1-3.5
		l-0.6,0.5l0.8,0c0-1,0-3.9,0.1-6.4l-0.8,0l-0.3,0.7c2.1,0.9,4.1,1.8,5.2,2.2l0.3-0.7l-0.8,0c0,2.3,0.2,7.5,0.2,7.5l0,0.3l7.2,6.5
		l0.5-0.4c0,0,1.7-1.5,3.7-3.1c1.9-1.6,4-3.4,4.8-4l-0.5-0.6l-0.6,0.5c0.7,0.8,1.9,2.5,3,3.9c1.1,1.4,2,2.6,2,2.6l0.2,0.2l8.8,1.1
		L107.3,393.7L107.3,393.7z"/>
	<path id="XMLID_15_" class="st1" d="M174.6,325.3c0,0-2.7,0.1-3.4,0.1c-0.6,3.1-2.6,12.8-2.6,12.8s-6.7-0.1-9-0.2
		c-1.2,2.6-5.5,12.7-5.5,12.7s-6.9-0.7-9.9-0.9c-0.6,3.3-2.2,12.3-2.2,12.3h-5.7l-0.8-0.7l-6.4-5.7l-0.6,7.2l1.6-0.5l8.1,10.4
		l5.4,8.1c0,0,0.6,2.6,0.9,4.4c0.8,0.1,1,0.1,1.8,0.1c1.8-2.5,5.8-8,6-8.3c0,0,3.4-3.4,4.7-4.6v-3c-0.7-1.2-4.7-7.5-4.7-7.5l6.9-6.2
		c0,0,3.4,1.2,5,1.8c1-1.5,1.8-2.7,2.6-3.9c-0.3-0.8-1.5-3.6-1.5-3.6s4.5-4.1,5.4-5c0.4-1.5,2.7-10.9,2.7-10.9s5-6.6,7-9.2
		c-0.9-1.2-2.6-3.4-4.2-5.4L174.6,325.3L174.6,325.3z"/>
	<path id="XMLID_16_" class="st1" d="M174.6,325.3l0-0.8c0,0-2.8,0.1-3.4,0.1l-0.6,0l-0.1,0.6c-0.3,1.5-1,4.8-1.5,7.6
		c-0.6,2.8-1.1,5.3-1.1,5.3l0.7,0.1l0-0.8c0,0-6.7-0.1-9-0.2l-0.5,0l-0.2,0.5c-1.2,2.6-5.5,12.7-5.5,12.7l0.7,0.3l0.1-0.7
		c0,0-6.9-0.7-9.9-0.9l-0.7-0.1l-0.1,0.7c-0.3,1.7-0.9,4.7-1.3,7.4c-0.5,2.7-0.9,4.9-0.9,4.9l0.7,0.1v-0.8h-5.4l-0.6-0.5l0,0
		l-7.5-6.7l-0.9,9.8l2.2-0.7l7.8,10l5.3,8.1l0.6-0.4l-0.7,0.2c0,0,0.6,2.6,0.9,4.4l0.1,0.5l0.6,0c0.8,0.1,1,0.1,1.8,0.1l0.4,0
		l0.2-0.3c0.9-1.3,2.4-3.3,3.6-5c0.6-0.9,1.2-1.6,1.6-2.2c0.2-0.3,0.4-0.5,0.5-0.7l0.2-0.2l0-0.1l0,0l-0.2-0.2l0.2,0.2l0,0l-0.2-0.2
		l0.2,0.2l-0.6-0.5l0.5,0.5c0,0,0.8-0.8,1.9-1.8c1-1,2.2-2.2,2.8-2.8l0.2-0.2v-3.5l-0.1-0.2c-0.7-1.2-4.7-7.5-4.7-7.5l-0.6,0.4
		l0.5,0.6l6.9-6.2l-0.5-0.6l-0.3,0.7c0,0,3.4,1.2,5,1.8l0.6,0.2l0.3-0.5c1-1.5,1.8-2.7,2.6-3.9l0.2-0.3l-0.1-0.4
		c-0.3-0.8-1.5-3.6-1.5-3.6l-0.7,0.3l0.5,0.6c0,0,4.5-4.1,5.4-5l0.2-0.1l0.1-0.2c0.4-1.5,2.7-10.9,2.7-10.9l-0.7-0.2l0.6,0.5
		c0,0,5-6.6,7-9.2l0.3-0.5l-0.4-0.5c-0.9-1.2-2.6-3.4-4.2-5.4l-0.9-1.2l-2,7l1.4,0.5v0l0.6-1.1l-1.3,0.1L174.6,325.3l-0.7-0.3l0,0
		L174.6,325.3l0.7,0.2l1.6-5.6l-0.7-0.2l-0.6,0.5c1.6,2,3.3,4.2,4.2,5.4l0.6-0.5l-0.6-0.5c-1,1.3-2.7,3.6-4.2,5.6
		c-1.5,2-2.8,3.6-2.8,3.6l-0.1,0.1l0,0.1c0,0-0.6,2.3-1.2,4.9c-0.6,2.5-1.3,5.3-1.5,6l0.7,0.2l-0.5-0.5c-0.5,0.4-1.8,1.7-3.1,2.8
		c-1.2,1.1-2.3,2.2-2.4,2.2l-0.4,0.4l0.2,0.5c0,0,1.2,2.8,1.5,3.6l0.7-0.3l-0.6-0.4c-0.8,1.2-1.6,2.4-2.6,3.9l0.6,0.4l0.3-0.7
		c-1.6-0.6-5-1.8-5-1.8l-0.4-0.2l-7.7,6.9l0.3,0.5c0,0,1,1.6,2.1,3.3c1.1,1.7,2.3,3.6,2.6,4.2l0.6-0.4h-0.8v3h0.8l-0.5-0.5
		c-1.3,1.3-4.7,4.6-4.7,4.6l0,0l0,0l-0.1,0.2c-0.3,0.4-1.4,1.9-2.6,3.5c-1.2,1.6-2.5,3.5-3.4,4.7l0.6,0.4l0.1-0.7
		c-0.7-0.1-0.9-0.1-1.8-0.1l-0.1,0.7l0.7-0.2c-0.4-1.8-0.9-4.4-0.9-4.4l0-0.1l-5.4-8.3l-8.5-10.9l-1.1,0.3l0.4-4.6l5.2,4.7l0,0
		l0.8,0.7l0.2,0.2h6.7l0.1-0.6c0,0,1.6-8.9,2.2-12.3l-0.7-0.1l-0.1,0.7c1.5,0.1,3.9,0.4,6,0.6c2.1,0.2,3.8,0.4,3.8,0.4l0.5,0.1
		l0.2-0.5c0,0,1.1-2.5,2.3-5.3c1.2-2.8,2.6-6,3.2-7.3l-0.7-0.3l0,0.8c2.3,0,9,0.2,9,0.2l0.6,0l0.1-0.6c0,0,2-9.7,2.6-12.8l-0.7-0.1
		l0,0.8c0.6,0,3.4-0.1,3.4-0.1L174.6,325.3l-0.7-0.3L174.6,325.3z"/>
	<path id="XMLID_17_" class="st2" d="M148.7,220.2l-5.8-0.4l-1,14l0,0.3l1.8,14.5l5.8-0.8c0,0-1.7-13.3-1.7-13.9
		C147.8,233.3,148.7,220.2,148.7,220.2"/>
	<path id="XMLID_18_" class="st2" d="M138.8,285.1c0.7-1.7,5.6-14.9,5.6-14.9v-9.2h-5.8v8.1c-0.4,1-6,15.8-6,15.8s4.9,16.6,5,17.1
		c0.1,0.6,2.1,23.7,2.1,23.7l5.8-0.6l-2.1-24.3C143.4,300.8,139.3,286.9,138.8,285.1"/>
	<path id="XMLID_19_" class="st2" d="M96.7,326l-5.8-0.1l-0.5,23.9l0,1.2c0,0,1.4,1.6,2,2.2v8.8h5.8v-11.2c0,0-1.4-1.5-1.9-2.2
		C96.3,346.4,96.7,326,96.7,326"/>
	<path id="XMLID_26_" class="st2" d="M295.2,343.4c-67,0-121.2-56.9-121.2-127c0-70.1,54.3-127,121.2-127
		c66.9,0,121.2,56.9,121.2,127C416.4,286.5,362.1,343.4,295.2,343.4 M157.8,216.4c0,20.8,4.3,40.6,11.9,58.5l-3.6,14l-0.2,0.8
		c0,0,5.7,22.1,6.1,23.6c-0.3,1-1.1,3.9-1.7,6.1c-0.7,0-3.7,0.2-3.7,0.2s-1.9,9.3-2.5,12.5c-2.5,0-8-0.2-8-0.2s-4.2,9.6-5.4,12.4
		c-2.7-0.3-11.1-1.1-11.1-1.1s-1.5,8.2-2.1,11.8l-8.3-7.4c-0.5-1.1-14.4-30.5-15.1-31.9c0.1-1.2,0.3-6.1,0.4-7.2
		c0.7-1.2,6.9-11.7,6.9-11.7l-0.3-5.4c0,0-2.6-3.1-3.6-4.2v-3.6h-5.8v5.9c0,0,2.8,3.3,3.7,4.4c0,0.6,0.1,0.8,0.1,1.4
		c-0.8,1.4-6.7,11.3-6.7,11.3l-0.5,10.4l15.7,33.1c-0.3,3.1-1.2,13.9-1.4,15.5c-1.3,1.4-14.1,15.4-14.1,15.4s-2.8,4.8-4,6.9
		c-1.1-0.1-1.6-0.2-2.5-0.3c-1.1-1.4-5.4-7-5.4-7h-4.5c0,0-4.4,3.7-6.5,5.5c-0.4-0.4-0.5-0.5-0.9-0.8c0-1.9-0.2-8.7-0.2-8.7
		s-8.2-3.6-10.8-4.7c0.6-122,52.2-189.3,76.1-214c-1.2,4.4-2.2,8.2-2.3,8.5c-0.4,0.7-8.2,14-8.2,14c-0.2,0.5-10.1,28.3-10.1,28.3
		l-0.1,0.4c0,0-1.1,16.5-1.2,18.2c-1.1,1.4-15.5,19.7-15.5,19.7v16.5c0,0,2.8,6.1,3.4,7.2c-0.1,1.2-0.3,6.2-0.3,6.2l5.8,0.3l0.4-7.7
		c0,0-2.9-6.3-3.4-7.3v-12.9c1.2-1.5,15.4-19.5,15.4-19.5s1.3-18.5,1.3-19.3c0.3-0.8,9.7-27.3,9.7-27.3l8.1-13.9l0.2-0.4l5-18.8
		c0.4-0.3,0.7-0.6,1-0.9h15C163.6,169.3,157.8,192.1,157.8,216.4 M176.2,319.7c1.6,2,3.2,4.2,4.2,5.4c-2,2.6-7,9.2-7,9.2
		s-2.3,9.4-2.7,10.9c-1,0.9-5.4,5-5.4,5s1.2,2.8,1.5,3.6c-0.8,1.2-1.6,2.4-2.6,3.9c-1.6-0.6-5-1.8-5-1.8l-6.9,6.2c0,0,4,6.3,4.7,7.5
		v3c-1.3,1.2-4.7,4.6-4.7,4.6c-0.3,0.3-4.2,5.8-6,8.3c-0.7-0.1-0.9-0.1-1.8-0.1c-0.4-1.8-0.9-4.4-0.9-4.4l-5.4-8.1l-8.1-10.4
		l-1.6,0.5l0.6-7.2l6.4,5.7l0.8,0.7h5.7c0,0,1.6-8.9,2.2-12.3c3,0.3,9.9,0.9,9.9,0.9s4.4-10,5.5-12.7c2.3,0,9,0.2,9,0.2
		s2-9.7,2.6-12.8c0.6,0,3.4-0.1,3.4-0.1L176.2,319.7z M115,391c0,0-2.6,6.3-3.7,8.9c-1.4,0.5-5.1,1.7-5.1,1.7s-4,11.9-4.7,14
		c-1.6,0.7-6,2.8-6,2.8s-1.9,2-2.9,3h-0.8c-0.4-2.2-1.2-6.2-1.2-6.2s-5.6-3.3-6.7-3.9c-0.7-1.2-7.1-12.4-7.9-13.7
		c0.1-1.5,0.3-9.3,0.3-9.3s-2.3-2.5-3.1-3.5c0-1,0-3.9,0.1-6.4c2.1,0.9,4.1,1.8,5.2,2.2c0,2.3,0.2,7.5,0.2,7.5l6.5,5.8
		c0,0,7-5.9,8.5-7.1c1.3,1.7,5.1,6.5,5.1,6.5l8.5,1.1c0,0,5.3-9.1,5.6-9.7c0.2-0.2,2.8-3.1,5.9-6.4C116.8,384.8,115,391,115,391
		 M169.2,111.2v22.4h-8.6L169.2,111.2z M295.2,72.5c-46.3,0-87.4,24.2-112.3,61.1h-9.6v-33.1h-4.7l-11.1,18.6l-6.1-6.9l-1.3,4.6
		l4.2,16.8h-8.6v15.7h4.3c-22.3,21.5-82.2,91.5-82.3,224.6l-0.1,13.4c0,0,2.2,2.5,3.1,3.5c-0.1,1.9-0.3,8.5-0.3,8.5l9.5,16.7
		c0,0,4.2,2.4,5.7,3.3c0.4,1.8,1.6,8.3,1.6,8.3h8c0,0,3.2-3.3,3.8-4c0.9-0.4,7.3-3.4,7.3-3.4s3.8-11.4,4.6-13.7
		c1.4-0.5,4.8-1.7,4.8-1.7l4.8-11.8c0.1-0.3,5.5-18.3,7-23.6c0.3-0.1,0.3-0.1,0.6-0.2c1.6,2.1,5.6,7.1,5.6,7.1c0,0,3.8,5.8,4.6,7
		c0.2,1,1.6,7.6,1.6,7.6l9.2,0.7l7.6-10.6l5.3-5.2l0.9-0.9v-7.4c0,0-1.7-2.8-2.8-4.5c0.2-0.2,0.2-0.2,0.4-0.4c1.6,0.6,6,2.2,6,2.2
		l7-10.5c0,0-0.9-2.2-1.1-2.7c1.3-1.2,3.6-3.3,3.6-3.3s2.6-10.3,2.9-11.4c0.7-0.9,9.1-12,9.1-12L177.7,312c-1.3-4.9-5.4-21-5.8-22.3
		c0.1-0.5,0.8-3.2,1.7-6.5c23,45.8,68.9,77.1,121.6,77.1c75.7,0,137.3-64.6,137.3-143.9C432.5,137,370.9,72.5,295.2,72.5"/>
</g>
</svg>
