<svg xmlns="http://www.w3.org/2000/svg" viewBox="0 0 60.8 80.38"><defs><style>.cls-1{fill:#FFFFFF;}</style></defs><g id="Layer_2" data-name="Layer 2"><g id="Layer_1-2" data-name="Layer 1"><polygon class="cls-1" points="43.04 0 13.28 0 13.28 26.52 16.78 26.52 16.78 3.46 43.04 3.46 43.04 17.55 57.3 17.55 57.3 66.43 36.93 76.51 16.78 66.44 16.78 59.12 13.28 59.12 13.28 68.57 36.93 80.38 60.8 68.57 60.8 17.55 60.8 17.55 43.04 0"/><path class="cls-1" d="M10.52,38.66H9.1v4h1.39a2.69,2.69,0,0,0,1.75-.51,1.81,1.81,0,0,0,.53-1.46,1.91,1.91,0,0,0-.48-1.44A2.41,2.41,0,0,0,10.52,38.66Z"/><path class="cls-1" d="M25.93,38.83h-1v9h.84a4.75,4.75,0,0,0,3.5-1.15,4.34,4.34,0,0,0,1.23-3.29,4.77,4.77,0,0,0-1.25-3.5A4.63,4.63,0,0,0,25.93,38.83Z"/><path class="cls-1" d="M48.86,27.85H4.14A4.15,4.15,0,0,0,0,32V53.72a4.15,4.15,0,0,0,4.14,4.13H48.86A4.15,4.15,0,0,0,53,53.72V32A4.15,4.15,0,0,0,48.86,27.85ZM15.7,44.61a5.31,5.31,0,0,1-4,1.4H9.1v5.3H5v-16h6.62a5.54,5.54,0,0,1,4.06,1.44,5,5,0,0,1,1.49,3.89A5.19,5.19,0,0,1,15.7,44.61Zm17,4.28a8.7,8.7,0,0,1-6.15,2.42H20.76v-16h5.45a8.93,8.93,0,0,1,6.36,2.21,7.79,7.79,0,0,1,2.24,5.83A7.4,7.4,0,0,1,32.72,48.89ZM48.05,38.83H43v2.66H47.6V45H43v6.29H38.88v-16h9.17Z"/></g></g></svg>
