<?xml version="1.0" encoding="utf-8"?>
<!-- Generator: Adobe Illustrator 23.0.1, SVG Export Plug-In . SVG Version: 6.00 Build 0)  -->
<svg version="1.1" id="Layer_1" xmlns="http://www.w3.org/2000/svg" xmlns:xlink="http://www.w3.org/1999/xlink" x="0px" y="0px"
	 viewBox="0 0 75 148.5" style="enable-background:new 0 0 75 148.5;" xml:space="preserve">
<style type="text/css">
	.st0{fill:#C4C5C4;}
	.st1{fill:none;stroke:#C4C5C4;stroke-width:0;stroke-linecap:round;stroke-linejoin:round;}
</style>
<path class="st0" d="M24.4,41.9L24.4,41.9l2.3,0.8l0.1-0.3c0,0,0,0,0,0l-0.1,0.2L24.4,41.9z"/>
<path class="st0" d="M36.3,56.2c0.1-1.6,0.2-3.1,0.2-4.6C36.5,53,36.4,54.6,36.3,56.2L36.3,56.2z"/>
<path class="st0" d="M43.4,38.5c-1.4-0.2-2.8-0.6-4.2-0.7c-0.3,0-0.4-0.1-0.5-0.2c0.1,0.1,0.3,0.2,0.6,0.2
	C40.6,38,42,38.3,43.4,38.5c0.6,0.2,1.3,0.2,1.9,0c2.2-1.2,4.3-2.5,6.8-4c-2.5,1.5-4.6,2.8-6.8,4C44.6,38.7,44,38.7,43.4,38.5z"/>
<path class="st0" d="M24.7,38.8l0.4-1.8l0,0L24.7,38.8c0.8,0.7,1.5,0.5,2.3-0.1l0,0C26.2,39.3,25.5,39.5,24.7,38.8z"/>
<path class="st0" d="M28,43.1c-0.9-0.9-1.4-1.9-1.5-2.9C26.6,41.2,27.2,42.3,28,43.1z"/>
<path class="st0" d="M29.5,41.8c0-0.1,0-0.1-0.1-0.2c-0.8-0.6-1.8-1.2-2.8-1.9c1,0.7,1.9,1.3,2.8,1.9C29.4,41.7,29.4,41.7,29.5,41.8
	z"/>
<path class="st0" d="M36.6,61.7c0.1-1.4-0.1-2.8-0.6-4.1c0-0.2-0.1-0.4-0.3-0.5c0.1,0.1,0.2,0.3,0.3,0.5
	C36.5,58.9,36.7,60.3,36.6,61.7z"/>
<path class="st0" d="M36.3,44.5c0,1.1,0,2.1,0,3.1C36.3,46.7,36.3,45.7,36.3,44.5z"/>
<path class="st0" d="M32.9,17.7c0-0.1,0-0.2,0-0.4C32.9,17.5,32.9,17.6,32.9,17.7z"/>
<path class="st0" d="M31,26.2c0.1,0,0.2,0.1,0.3,0.1c1.4,0.5,2.8,0.9,4.2,1.5c0.4,0.2,0.6,0.5,0.7,0.9c0.2,3,0.3,5.9,0.4,9
	c-0.1-3-0.2-6-0.4-9c-0.1-0.4-0.4-0.8-0.7-0.9c-1.4-0.5-2.8-1-4.2-1.5c-0.6-0.3-1.3-0.3-1.9,0C30,26.1,30.5,26,31,26.2z"/>
<path class="st0" d="M36.5,26.4c-0.1-0.4-0.1-0.9-0.2-1.3C36.4,25.6,36.4,26,36.5,26.4z"/>
<path class="st0" d="M26.1,26.4c0.4,0,0.8,0,1.5,0.2C26.9,26.4,26.5,26.4,26.1,26.4z"/>
<path class="st0" d="M30.8,38.7c0.7-0.1,1.3-0.2,2-0.4C32,38.5,31.4,38.6,30.8,38.7C30.7,38.7,30.7,38.7,30.8,38.7z"/>
<path class="st0" d="M36.5,51.5C36.5,51.5,36.6,51.5,36.5,51.5C36.5,51.5,36.5,51.5,36.5,51.5C36.5,51.5,36.5,51.5,36.5,51.5z"/>
<path class="st0" d="M36.2,139.1c0.2,0.9,0.3,1.9,0.3,2.9c0,0,0,0,0-0.1C36.5,141,36.4,140.1,36.2,139.1z"/>
<path class="st0" d="M23.7,37.1c0,0.1,0.1,0.2,0.1,0.3C23.7,37.3,23.7,37.2,23.7,37.1z"/>
<path class="st0" d="M23.8,37.7C23.8,37.7,23.8,37.7,23.8,37.7C23.8,37.7,23.8,37.7,23.8,37.7C23.8,37.7,23.8,37.7,23.8,37.7z"/>
<path class="st0" d="M39,148.2C39,148.2,39,148.2,39,148.2c0-0.6-0.1-1.2-0.2-1.9C38.8,146.9,38.9,147.5,39,148.2z"/>
<path class="st0" d="M39,139.3c-0.2,0.8-0.4,1.5-0.4,2.3C38.6,140.8,38.8,140.1,39,139.3L39,139.3z"/>
<path class="st0" d="M47,63.3c-0.1,0.1-0.2,0.1-0.3,0.2C46.8,63.4,46.9,63.4,47,63.3z"/>
<path class="st0" d="M47.4,26.5c0.7-0.1,1.3-0.1,1.9,0C48.8,26.4,48.1,26.4,47.4,26.5z"/>
<path class="st0" d="M38.9,70.3c-0.1-2.2,0-4.3-0.1-6.3C38.8,66,38.8,68.1,38.9,70.3z"/>
<path class="st0" d="M29.8,67.1c0.7,0.6,1.3,1.3,2,1.9C31.1,68.3,30.5,67.7,29.8,67.1c-0.2-0.2-0.3-0.3-0.5-0.4L29,66.8c0,0,0,0,0,0
	l0.3-0.1C29.5,66.8,29.7,66.9,29.8,67.1z"/>
<polygon class="st0" points="44.4,65 44.7,65.1 44.7,65.1 44.4,65 "/>
<path data-disabled="section" data-group="head" class="st0" d="M41.6,16c0.8-0.5,1.3-1.5,1.1-2.5c-0.1-0.7,0-1.9,0.4-2.2c1.1-0.8,1.1-1.9,1.3-2.9c0-0.4-0.1-0.7-0.3-1.1
	c-0.3-0.6-0.6-1.2-0.8-1.8c-0.2-0.8-0.1-1.6-0.3-2.5c0-0.5-0.2-0.9-0.5-1.2c-1.5-1.1-2.4-2.2-5-2c-1.4-0.1-2.9,0.3-4,1.2
	c-1.1,0.6-1.7,1.8-1.7,3c0,1.1-0.3,2.1-0.8,3.1c-0.5,0.9-0.5,3.1,0.3,3.7c0.6,0.4,1,1.1,0.9,1.8c0,0.8-0.2,1.9,0.3,2.3
	c1.5,1.5,2.7,3.6,5.5,3.2c0.7,0,1.5-0.3,2-0.8C40.5,17,41,16.5,41.6,16z"/>
<path class="st0" d="M32.7,38.4c1.3-0.2,2.6-0.5,3.9-0.7C35.3,37.9,34,38.1,32.7,38.4z"/>
<path class="st0" d="M23.4,34.6c0.2-0.2,0.3-0.4,0.5-0.5c1.6-0.9,2.8-2.5,3.3-4.3c0.2-0.8,0.7-1.5,1-2.3c0-0.1,0.1-0.2,0.1-0.3
	c0.2-0.5,0.6-0.8,1.1-1c-0.6,0.2-1.1,0.7-1.3,1.4c-0.3,0.8-0.7,1.5-1,2.3c-0.5,1.8-1.7,3.3-3.3,4.3C23.7,34.2,23.6,34.4,23.4,34.6
	c2.2,1.4,4.3,2.7,6.5,3.9c0.2,0.1,0.5,0.2,0.8,0.1c0,0,0,0,0,0c-0.2,0-0.5,0-0.7-0.1C27.8,37.3,25.6,36,23.4,34.6z"/>
<path class="st0" d="M38.6,37.6c-0.2-0.2-0.2-0.4-0.2-0.8c0.1-2.7,0.2-5.5,0.4-8.2c0.1-0.3,0.3-0.6,0.6-0.8c1.5-0.5,3-1.1,4.5-1.5
	c0.1,0,0.2-0.1,0.3-0.1c1.1-0.3,2.2,0.3,2.5,1.4l0.3,0.5c1.2,2.4,1.9,5.2,5,6.4c-3.1-1.2-3.8-4-5-6.5l-0.3-0.5
	c0-0.1-0.1-0.2-0.1-0.4c-0.5-1-1.7-1.4-2.7-0.9c-1.5,0.5-3,1-4.5,1.5c-0.3,0.1-0.6,0.4-0.6,0.8c-0.2,2.7-0.3,5.5-0.4,8.2
	C38.4,37.1,38.4,37.4,38.6,37.6z"/>
<path class="st0" d="M23.7,37C23.7,37,23.7,37,23.7,37C23.7,37,23.7,37.1,23.7,37C23.7,37.1,23.7,37,23.7,37z"/>
<path class="st0" d="M23.8,37.4c0,0.1,0,0.2,0,0.3C23.8,37.6,23.8,37.5,23.8,37.4z"/>
<path class="st0" d="M50.1,63.5c-1.6,0.7-1.7,0.8-1.7,2.3c0,0.5,0,1.1,0.1,1.6c0-0.5,0-1.1,0-1.6C48.4,64.3,48.5,64.2,50.1,63.5z"/>
<path class="st0" d="M36.6,61.7c-0.2,2.5-0.2,5-0.3,7.5C36.4,66.7,36.4,64.2,36.6,61.7z"/>
<path class="st0" d="M35.7,57.1C35.7,57,35.6,57,35.6,57C35.6,57,35.7,57,35.7,57.1z"/>
<path class="st0" d="M36.3,69.2c0,0.3-0.1,0.6-0.1,1.1C36.3,69.7,36.3,69.5,36.3,69.2z"/>
<path class="st0" d="M38.9,70.3c0.3-0.2,0.7-0.4,1-0.7C39.5,69.9,39.2,70.1,38.9,70.3L38.9,70.3z"/>
<path class="st0" d="M39,139.3c0.3,0.1,0.5,0.2,0.7,0.2C39.5,139.5,39.3,139.4,39,139.3z"/>
<path class="st0" d="M38.5,141.6c-0.2,1.6,0,3.2,0.2,4.7C38.6,144.7,38.4,143.2,38.5,141.6z"/>
<path class="st0" d="M44.8,65.1c0.7-0.5,1.3-1.1,2-1.6C46.1,64,45.4,64.6,44.8,65.1L44.8,65.1z"/>
<path class="st0" d="M47.3,66.8c-0.2,0.4-0.3,0.7-0.5,1.1C46.9,67.5,47.1,67.2,47.3,66.8L47.3,66.8z"/>
<path class="st0" d="M24.3,27.3c0.8-0.6,1.2-0.9,1.8-0.9C25.5,26.4,25.1,26.7,24.3,27.3z"/>
<path class="st0" d="M46.1,66.8c0,0.4,0,0.8,0,1.2C46.2,67.6,46.1,67.2,46.1,66.8l-0.3-0.1c-0.8,0.7-1.5,1.5-2.3,2.2
	c0.8-0.7,1.5-1.4,2.3-2.1L46.1,66.8z"/>
<path class="st0" d="M36.4,51c0.1,0.1,0.2,0.3,0.2,0.5C36.6,51.2,36.5,51.1,36.4,51z"/>
<path class="st0" d="M36.5,51.5C36.6,51.5,36.5,51.5,36.5,51.5C36.5,51.5,36.5,51.5,36.5,51.5C36.5,51.5,36.5,51.5,36.5,51.5z"/>
<path class="st0" d="M36.5,73.6C36.5,73.6,36.5,73.6,36.5,73.6c0,0.2,0,0.4,0,0.7C36.5,74,36.5,73.8,36.5,73.6z"/>
<path class="st0" d="M38.9,73.9c0-0.1-0.1-0.1-0.1-0.2c-0.5,3.3-0.8,6.4,1.5,9.2C38,80.2,38.3,77.1,38.9,73.9z"/>
<path class="st0" d="M36.2,23.9c0.1,0.4,0.1,0.8,0.2,1.3C36.3,24.7,36.2,24.3,36.2,23.9z"/>
<path class="st0" d="M32.9,17.7c0,0.2,0,0.5,0,0.7C32.9,18.2,32.9,17.9,32.9,17.7z"/>
<path class="st0" d="M33,16.7c0,0.2,0,0.4,0,0.6C33,17.1,33,16.9,33,16.7C33,16.7,33,16.7,33,16.7z"/>
<g data-disabled="section" data-group="neck">
	<polygon class="st0" points="42.5,21.4 42.4,21.4 42.4,21.4 40.8,24.4 47.8,24.4 47.8,24.4 47.8,24.3 	"/>
	<path class="st0" d="M42.1,16.8c-2.8,2.5-3.5,5.8-3.4,9.5C40.9,23.4,42.5,20.4,42.1,16.8z"/>
	<path class="st0" d="M36.2,23.9c-0.1-0.9-0.2-1.7-0.4-2.6c-0.2-1-0.7-1.7-1.3-2.5c-0.5-0.7-1-1.3-1.5-2c0,0,0,0,0,0
		c0,0.2,0,0.4-0.1,0.6c0,0.1,0,0.2,0,0.4c0,0.3,0,0.5,0,0.7c0,0.4,0,0.7,0.1,1.1c0.4,2.6,1.9,4.8,3.5,6.9c-0.1-0.4-0.1-0.9-0.2-1.3
		C36.3,24.7,36.2,24.3,36.2,23.9z"/>
	<polygon class="st0" points="27.2,24.3 27.3,24.5 34.3,24.5 32.6,21.4 	"/>
</g>
<g data-part="section" data-group="left_arm">
	<path data-disabled="top_left_torso" class="st0" d="M36.2,28.7c-0.1-0.4-0.4-0.8-0.7-0.9c-1.4-0.5-2.8-1-4.2-1.5c-0.1-0.1-0.2-0.1-0.3-0.1c-0.5-0.2-1-0.1-1.5,0.1
		c-0.4,0.2-0.8,0.5-1.1,1c-0.1,0.1-0.1,0.2-0.1,0.3c-0.3,0.8-0.8,1.5-1,2.3c-0.5,1.8-1.7,3.3-3.3,4.3c-0.2,0.1-0.3,0.3-0.5,0.5
		c2.2,1.4,4.4,2.7,6.6,3.9c0.2,0.1,0.4,0.1,0.7,0.1c0.7-0.1,1.4-0.2,2.1-0.4c1.3-0.2,2.6-0.5,3.9-0.7C36.6,34.6,36.5,31.6,36.2,28.7z
		"/>
	<path class="st0" d="M7.4,67.6L7.4,67.6c0.2-0.3,0.4-0.6,0.6-0.9C8.5,66,9,65.2,9.5,64.4c0.2-0.3,0.3-0.5,0.5-0.8
		c1.4-2.3,2.8-4.7,4.4-6.9c1.3-1.8,1.9-4.1,1.5-6.3c-0.1-0.7-0.2-1.4-0.3-2.3c0,0,0,0,0,0c0,0,0,0,0,0c-0.8,0.7-1.6,1.2-1.9,1.9
		c-0.9,2-1.5,4-2,6.1c-0.5,2.1-0.7,4.1-1.8,6c-1,1.5-1.7,3.1-2.5,4.6C7.1,67,7,67.3,7,67.6H7.4C7.4,67.7,7.4,67.7,7.4,67.6z"/>
	<path class="st0" d="M24.3,26.5c-0.1,0-0.2,0-0.4-0.1c-0.1,0-0.2,0-0.3-0.1c-1.6-0.3-3.2-0.4-4,1.5c-0.2,0.4-0.5,0.7-0.8,1
		c-0.8,0.8-1,1.6-1,2.5c0,1.1,0.3,2.3,0.3,3.5C19.1,31.4,21.3,28.4,24.3,26.5z"/>
	<path class="st0" d="M17.4,49.7c-0.8-2.2-0.9-4.3-0.7-6.4c0.2-1.7,0.6-3.4,1-5.1C13.7,41.6,14.5,47.5,17.4,49.7z"/>
	<path class="st0" d="M21.5,47.2c-1.6,1.6-3.1,3-4.5,4.5c-0.1,0.1-0.1,0.2-0.1,0.4c0,0.3,0.1,0.6,0.1,1.1c1.3-0.9,2.3-1.6,3.2-2.4
		c0.4-0.3,0.7-0.8,0.9-1.3C21.3,48.7,21.4,48,21.5,47.2C21.5,47.3,21.5,47.3,21.5,47.2C21.4,47.3,21.4,47.3,21.5,47.2z"/>
	<path class="st0" d="M9.2,70.3c-1.2,0.1-2.3-0.7-2.5-1.9c0-0.1-0.1-0.2-0.2-0.3c-1.6,0.5-3.2,1.2-4.5,2.2C1.2,70.7,0,71.7,0,72
		c0,0.5,0.3,0.5,0.5,0.5C1,72.4,1.4,72.2,1.8,72l1.8-0.8c0,0.4-0.1,0.8-0.2,1.2C3,73.3,2.5,74.2,2,75.1L0.5,78
		c-0.1,0.1-0.1,0.1-0.1,0.2c0,0.1,0,0.1,0,0.2C0.4,78.7,0.6,79,1,79c0,0,0,0,0,0c0.3,0,1-1,1.2-1.5c0.5-0.9,1.1-1.7,1.6-2.5l0.4,0.2
		c0,1.3-1,2.5-1.3,3.7c-0.1,0.3-0.2,0.6-0.3,0.9c0,0.4,0.3,0.7,0.7,0.7c0.4,0,1-1.2,1.1-1.7c0.3-0.7,0.6-1.5,1-2.2
		c0.2-0.3,0.5-0.6,0.8-0.9c0.1,0.4,0.1,0.8,0,1.2C6.1,77.3,6,77.8,6,78.2c-0.4,0.5-0.6,1.1-0.7,1.7c0,0.3,0.3,0.6,0.6,0.6
		c0.3,0,0.7-0.7,0.8-1.1c0.1-0.2,0.1-0.4,0.2-0.5c0.2-0.8,0.5-1.6,0.9-2.3c0.1-0.3,0.5-0.4,0.8-0.6c-0.1,1-0.2,1.9-0.4,2.9
		c0,0.1-0.1,0.3-0.1,0.4c0,0.2,0.2,0.4,0.4,0.4c0.2,0,0.5-0.4,0.5-0.7c0.9-2.5,1.3-5.1,1.1-7.7C9.9,70.7,9.8,70.3,9.2,70.3z"/>
	<path class="st0" d="M15.5,56.2c-1.7,3.1-3.5,6.2-5.3,9.3c-0.8,1.4-0.7,2.5,0.6,3.8c2.5-3.3,5.2-6.4,7.4-9.9c1.4-2.3,2.1-5,3.1-7.6
		c-1,0.4-2,0.9-2.9,1.4C17.1,53.9,16.1,54.9,15.5,56.2z"/>
	<path class="st0" d="M23.8,37.7c0-0.1,0-0.2,0-0.3c0-0.1,0-0.2-0.1-0.3c0,0,0-0.1,0-0.1c-0.1-0.2-0.1-0.3-0.2-0.5
		c0,0-0.1-0.1-0.1-0.1c-0.1-0.1-0.2-0.2-0.3-0.3C23,36.1,23,36,22.9,36c-0.1-0.1-0.2-0.1-0.3-0.2c-0.1,0-0.1-0.1-0.2-0.1
		c-0.1,0-0.2-0.1-0.4-0.1c0,0-0.1,0-0.1,0c-0.2,0-0.5,0-0.7,0.1c-0.4,0.2-0.8,0.3-1.2,0.5c-0.6,0.1-1,0.6-1.1,1.2
		c-0.5,2.2-1.1,4.5-1.7,6.7C17,44.5,17,44.9,17,45.3c0,1,0.3,2,0.5,3.2c0,0.2,0.1,0.5,0.1,0.7c0.9-0.7,1.8-1.3,2.5-1.9
		c0.3-0.3,0.5-0.5,0.7-0.8C22.6,43.9,23.6,40.9,23.8,37.7C23.8,37.7,23.8,37.7,23.8,37.7C23.8,37.7,23.8,37.7,23.8,37.7z"/>
	<path class="st0" d="M26.1,26.4c-0.6,0-1,0.3-1.8,0.9c-1.5,1-2.7,2.3-3.6,3.9c-0.3,0.5-0.5,0.9-0.7,1.4c-0.2,0.5-0.4,1-0.5,1.5
		c0,0,0,0,0,0c-0.1,0.4-0.2,0.8-0.5,1.4c1-0.6,2.1-1.1,3.2-1.6c1.8-0.7,3.3-2.2,3.8-4.1c0.4-1.1,1-2.1,1.5-3.2
		C26.9,26.4,26.5,26.4,26.1,26.4z"/>
</g>
<g data-part="section" data-group="right_leg">
	<path class="st0" d="M42.2,84.6c-0.3,0.6-0.4,1.3-0.4,2c0,0,0,0,0,0c0,0,0,0,0,0c0.3,4,0.7,8.1,1,12.1c0,0.3,0.1,0.6,0.1,0.9
		c0,0.3,0.1,0.6,0.1,1c0,0.3,0.1,0.6,0.1,1c0.1,0.2,0.2,0.4,0.5,0.5c0.2,0,0.4-0.2,0.5-0.4c0.1-0.2,0.1-0.4,0.2-0.6
		c0.9-4.1,1.9-8.3,2.7-12.4c0.5-2.6,1.3-5.1,1.3-7.8c0-0.4,0-0.8,0-1.2c-0.2-2.2-0.2-4.4-0.3-6.6C48,72.8,48,72.4,47.9,72
		c-0.3,0.6-0.5,1-0.6,1.3C45.6,77.1,43.9,80.9,42.2,84.6z"/>
	<path class="st0" d="M39.9,102.6c0.1,0.3,0.2,0.6,0.3,0.9c2-1.1,2.3-1.2,2.3-1.9c0-0.3-0.1-0.8-0.2-1.6c-0.1-0.8-0.2-1.6-0.2-2.4
		c-0.1-1.5-0.3-3-0.4-4.5c-0.2-1.8-0.4-3.7-0.6-5.6l-0.3,0c-0.2,0.5-0.4,0.9-0.6,1.6c-0.2,0.7-0.3,1.4-0.5,2.1
		c-0.6,2-1.1,3.9-1.1,5.9c0,1.2,0.2,2.4,0.8,3.6C39.6,101.3,39.8,101.9,39.9,102.6z"/>
	<path class="st0" d="M40.3,82.9c0.3-1.7,0.6-3.3,1-4.9c0.1-0.2,0.1-0.4,0-0.7c-0.8-1.2-1.6-2.3-2.5-3.6c0,0.1,0,0.1,0,0.2
		C38.3,77.1,38,80.2,40.3,82.9L40.3,82.9z"/>
	<path class="st0" d="M45.3,144.9c-0.4-0.9-0.9-1.7-1.5-2.5c-0.8-1-1.4-2.2-2.8-2.6c-0.4-0.1-0.8-0.2-1.3-0.3
		c-0.2-0.1-0.5-0.1-0.7-0.2c-0.2,0.8-0.4,1.5-0.5,2.2c-0.1,1.6,0,3.2,0.2,4.7c0.1,0.6,0.2,1.3,0.2,1.9c0,0,0,0,0,0.1
		c1.4,0.7,1.8-0.1,2.3-0.9v1.1c0,0,0,0,0,0v0.1c1.1-0.4,2.1-0.8,3.1-1.1c1-0.3,1.5-0.8,1.3-1.6C45.6,145.5,45.5,145.3,45.3,144.9z"
		/>
	<path class="st0" d="M50.8,82.3c-0.1-0.8-0.2-1.5-0.2-2.3c0,0,0,0,0-0.1c-0.1-3.8-0.2-7.6-0.2-11.4c-0.1-1.7-0.2-3.3-0.3-5.1
		c-1.6,0.7-1.7,0.8-1.6,2.3c0,0.5,0,1.1,0,1.6c0,0.8,0.1,1.7,0.1,2.5c0,0.5,0,1,0.1,1.6c0.1,2.2,0.3,4.3,0.3,6.5
		c0.2,2,0.2,3.9-0.1,5.9c-0.8,4.7-2,9.3-3,14c-0.3,1.2-0.5,2.4-0.7,3.6l0.4,0.2c0,0,0,0,0,0l0.1,0c0.3-0.2,0.5-0.5,0.6-0.9
		c1.2-3.9,2.3-7.9,3.4-11.8C50.3,86.8,51.2,84.7,50.8,82.3z"/>
	<path class="st0" d="M42,76.8c0.1-0.2,0.2-0.3,0.3-0.5c0.8-2.8,2.1-5.5,3.6-8c0.1-0.1,0.1-0.2,0.1-0.4c0.1-0.4,0-0.8,0-1.2
		l-0.3-0.1c-0.8,0.7-1.5,1.4-2.3,2.1c-0.5,0.4-0.9,0.9-1.4,1.3c-0.7,0.7-1.5,1.4-2.3,2.1c-0.1,0.1-0.1,0.3-0.2,0.4
		c0,0.1,0,0.3,0,0.4C40.4,74.3,41.2,75.5,42,76.8z"/>
	<path class="st0" d="M46.5,109.7l-0.3-0.1c-0.4,0.8-0.6,1.6-1.1,2.4c-0.2,0.3-0.3,0.6-0.5,1c-1.3,3-1.9,6.3-1.7,9.5
		c0.2,3.3-0.1,6.6-1,9.8c-0.6,2-1,4-1.5,6c0,0.3,0,0.6,0,0.8c0.5-0.2,0.8-0.4,1.2-0.5c0.4-0.1,0.8-0.4,1.1-0.7
		c0.5-0.5,0.9-1.1,1-1.8c0.9-3.6,2-7.1,2.9-10.6c0.6-2.3,1.6-4.6,1.1-7.2C47.2,115.4,46.9,112.5,46.5,109.7z"/>
	<path class="st0" d="M40.3,136.1C40.3,136.1,40.3,136.1,40.3,136.1C40.3,136.1,40.3,136.1,40.3,136.1c2-7.4,2-15.2,0.1-22.7l-0.4,0
		c-0.3,1.1-0.6,2.1-0.9,3.1c-0.6,2.4-0.5,5,0.3,7.4c0.4,1.1,0.8,2.3,0.9,3.5c0.2,2.7,0,5.3,0,8C40.3,135.6,40.3,135.9,40.3,136.1z"
		/>
	<path class="st0" d="M44.3,73.3c-1.6,3.9-3.8,7.5-4,11.9c0,0.7-0.2,1.5-0.3,2.2c0,0,0,0,0,0c0,0,0,0,0,0c0.3-0.2,0.5-0.4,0.6-0.7
		c2-4.5,4-9.1,6.1-13.5c0.9-2,1.1-4.2,0.5-6.4v0c-0.2,0.4-0.3,0.7-0.5,1.1c-0.5,1.1-1,2.3-1.5,3.4C44.9,72,44.6,72.6,44.3,73.3z"/>
	<path class="st0" d="M44.8,103.9c-0.9,0-1.8,0.1-2.8,0.2c-0.6,0.1-0.8,0.4-0.8,0.9c0,0.1,0,0.3,0.1,0.4c0.2,0.7,0.4,1.5,0.5,2.3
		c0.2,0.9,0.4,1.8,0.7,3.1h0c0.5-0.5,1-0.8,1.1-1.2c0.1-1.4,0.7-2.7,1.6-3.7c0.2-0.2,0.3-0.6,0.2-0.9
		C45.5,104.5,45.2,103.9,44.8,103.9z"/>
	<path class="st0" d="M42.1,112.3c0.1-1-0.1-1.9-0.6-2.8c-0.8-1.5-1.5-3-2.2-4.5c-0.1-0.2-0.2-0.3-0.4-0.4c-0.1,0.5-0.2,1-0.2,1.5
		c-0.1,1.5,0.3,2.9,1,4.2c0.3,0.6,0.5,1.2,0.7,1.8c0.1,0.3,0.3,0.7,0.4,1.1c0.2,0.5,0.4,1,0.6,1.6l0.3-0.1c0.1-0.4,0.2-0.8,0.2-1.3
		C42,112.9,42.1,112.6,42.1,112.3z"/>
	<path class="st0" d="M47.6,102.3h-0.3l-2.4,6.2c2.4-0.4,2.7-0.5,2.7-2.2c0,0,0,0,0,0c0-0.2,0-0.5,0-0.8V102.3L47.6,102.3z"/>
</g>
<g data-part="section" data-group="left_leg">
	<path class="st0" d="M34,79.1c0.1,0.3,0.1,0.5,0.2,0.8c0.1,0.2,0.1,0.5,0.2,0.8c0.2,0.7,0.3,1.5,0.5,2.2l0,0
		c2.4-2.5,1.9-5.4,1.6-8.5c0-0.2,0-0.4,0-0.6c0,0,0,0,0,0c-0.5,0.8-1,1.5-1.5,2.2C34.1,76.6,33.7,77.9,34,79.1z"/>
	<path class="st0" d="M36.1,104.7C36.1,104.6,36.1,104.6,36.1,104.7c-0.5,1.4-1.2,2.8-2,4.1c-0.5,0.7-0.8,1.3-0.9,2
		c-0.3,1.3,0,2.6,0.4,4c0.1-0.2,0.3-0.4,0.4-0.6c0.8-1.9,1.6-3.7,2.3-5.6C36.5,107.2,36.5,105.9,36.1,104.7
		C36.1,104.6,36.1,104.6,36.1,104.7z"/>
	<path class="st0" d="M29.8,97c0.3,1.5,0.6,3,1,4.5c0.1,0.3,0.4,0.5,0.6,0.8c0,0,0,0,0,0c0,0,0,0,0,0c0.2-0.3,0.4-0.5,0.5-0.8
		c0.1-0.7,0.2-1.3,0.2-2c0.3-3.5,0.7-7,0.9-10.5c0.1-1.3,0.4-2.8-0.1-3.9c-1.6-4.1-3.5-8.1-5.3-12.1c-0.1-0.2-0.2-0.5-0.4-0.7
		l-0.4,0.1c0,1.3,0,2.6,0,3.9c0,2.4-0.3,4.9,0,7.3C27.7,88,28.8,92.5,29.8,97z"/>
	<path class="st0" d="M27.9,102.2h-0.2c-0.1,1.7-0.2,3.3-0.3,5c0,0,0,0,0,0c0,0,0,0,0,0c0,0.2,0.2,0.5,0.4,0.6
		c0.7,0.2,1.5,0.4,2.5,0.7l0-0.1c0,0,0,0,0,0L27.9,102.2z"/>
	<path class="st0" d="M29.4,101.6c0.1,0,0.1,0,0.2,0c0.1,0,0.2-0.1,0.3-0.1c0-0.2,0-0.4-0.1-0.7c-0.8-3.9-1.8-7.8-2.5-11.7
		c-0.6-2.1-1-4.3-1.2-6.4c0-0.3-0.1-0.7-0.1-1c0-5,0.5-10.2,0.6-15.2c0-1,0.1-1.5,0-1.8c-0.1-0.4-0.5-0.6-1.5-1c0,0.2,0,0.3-0.1,0.5
		c-0.1,4.6-0.3,9.2-0.4,13.8c0,0.2,0,0.5,0,0.7c0,0.2,0,0.5,0,0.7c0,0.2,0,0.5,0,0.7c0,1-0.1,1.9-0.1,2.9c0,1.6,0.1,3.2,0.8,4.7
		c0.3,1,0.6,2,0.9,3c0.1,0.3,0.2,0.6,0.2,0.8c0.9,3.1,1.7,6.2,2.6,9.2C29,101.1,29.1,101.5,29.4,101.6z"/>
	<path class="st0" d="M33.6,84.8c0.4,0.9,0.9,1.9,1.3,2.8c0,0,0,0,0,0c0,0,0,0,0,0.1c0-0.9,0-1.9-0.2-2.8c-0.2-2.1-0.8-4.2-1.6-6.2
		c-0.2-0.4-0.4-0.8-0.5-1.1c-1-2.1-1.9-4.1-2.8-6.2c-0.5-1.2-1.1-2.5-1.6-3.7c-0.1-0.3-0.3-0.5-0.4-0.8h-0.3c0,1.5-0.4,3.2,0.2,4.6
		C29.6,75.9,31.6,80.3,33.6,84.8z"/>
	<path class="st0" d="M34.7,138.9c0-0.2,0-0.3,0-0.5v0c-0.2-0.6-0.3-1.2-0.5-1.8c-0.3-1.2-0.7-2.5-1-3.7c-0.2-0.6-0.3-1.2-0.4-1.9
		c-0.3-1.6-0.5-3.1-0.6-4.7c-0.1-3-0.2-6.1-0.2-9.2c0,0,0,0,0,0c0-0.2,0-0.4-0.1-0.5s-0.1-0.3-0.2-0.5c-0.8-1.9-1.6-3.9-2.4-5.8
		c-0.1-0.1-0.1-0.2-0.2-0.4c-0.1-0.1-0.2-0.3-0.3-0.5c0,0.1-0.1,0.3-0.1,0.4c-0.1,0.3-0.2,0.6-0.2,0.8c-0.4,2.4-0.8,4.7-1,7.1
		c-0.2,0.6-0.2,1.3-0.3,1.9c0,0.7,0,1.3,0.2,2c1.5,4.9,2.7,9.8,4.1,14.7C31.8,137.8,33.1,138.9,34.7,138.9z"/>
	<path class="st0" d="M36.2,139.1L36.2,139.1c-1.4,0.6-2.7,0.8-3.4,1.5c-1.2,1.5-2.3,3-3.2,4.7c-0.1,0.1-0.1,0.3-0.1,0.5
		c0,0.5,0.1,1.2,0.4,1.3c1.2,0.5,2.5,0.9,3.8,1.2l0.2-1.1c0.3,0.1,0.4,0.3,0.4,0.4c0,0,0,0.1,0,0.1c0.1,0.5,0.6,0.9,1.1,0.8
		c0.7-0.1,0.9-0.5,0.9-1c0.1-1.8,0.3-3.6,0.3-5.5c0,0,0,0,0,0C36.5,141.1,36.4,140.1,36.2,139.1z"/>
	<path class="st0" d="M34.9,88.9c-0.2-0.5-0.4-1-0.6-1.5c-0.3,0.3-0.4,0.7-0.4,1.1c0,0.2,0,0.3-0.1,0.5c-0.1,0.7-0.2,1.5-0.2,2.2
		c0,0.2,0,0.3,0,0.5c-0.3,3.2-0.6,6.5-0.9,9.7c0,0,0,0,0,0c0,0,0,0,0,0c0,0.3,0.1,0.6,0.3,0.8c0.6,0.4,1.2,0.8,1.9,1.1
		c0.1-0.1,0.2-0.3,0.3-0.5c0.6-2,1.1-4,1.6-6c0-0.1,0-0.3,0-0.4c0-0.2,0-0.3-0.1-0.5C36.1,93.7,35.5,91.3,34.9,88.9z"/>
	<path class="st0" d="M34.2,116.2c-1.3,6.3-1.1,17.2,0.6,19.6c0,0,0,0,0,0c0,0,0,0,0,0c0-2.7,0-5.5,0-8.3c0-0.5,0.1-0.9,0.2-1.4
		c1-2.2,1.4-4.6,1.4-7.1c0-0.6-0.1-1.2-0.2-1.8c-0.3-1.4-0.8-2.7-1.2-4.1C34.7,114.1,34.4,115.1,34.2,116.2z"/>
	<path class="st0" d="M32.7,75.9c0.1,0.3,0.3,0.7,0.4,1c0.8-1.3,1.4-2.4,2.1-3.5c0.2-0.3,0.3-0.5,0.2-0.7c0-0.2-0.2-0.4-0.4-0.6
		c-0.7-0.6-1.3-1.3-2-1.9c-0.4-0.4-0.8-0.8-1.2-1.2c-0.7-0.6-1.3-1.3-2-1.9c-0.2-0.1-0.3-0.2-0.5-0.3L29,66.8l0,0
		c0,0.5,0.1,1.1,0.3,1.6C30.7,70.7,31.9,73.2,32.7,75.9z"/>
	<path class="st0" d="M33.1,104.1c-1.1-0.2-2.3-0.3-3.4-0.4c0,0,0,0,0,0c0,0,0,0,0,0c0.1,1,0,1.9,0.4,2.4c0.8,0.9,1.3,2.1,1.4,3.3
		c0,0.2,0.1,0.4,0.1,0.5c0.2,0.4,0.5,0.6,1.1,0.6c0,0,0,0,0,0h0c0.1-0.4,0.2-0.7,0.2-1c0.1-0.6,0.3-1.2,0.4-1.7
		c0.2-0.8,0.4-1.7,0.5-2.5C33.8,104.8,33.5,104.4,33.1,104.1z"/>
</g>
<path class="st0" d="M26.5,40.3c0-0.2,0-0.4,0-0.5C26.6,39.9,26.5,40.1,26.5,40.3z"/>
<path class="st0" d="M24.4,41.9c0-0.4,0.1-0.8,0.1-1.1c0-0.4,0.1-0.7,0.2-1.1c1.3,0.5,1.5,1.8,2.1,2.8l0,0c-0.5-1-0.7-2.3-2.1-2.8
	c-0.1,0.4-0.2,0.8-0.2,1.1C24.5,41.1,24.4,41.4,24.4,41.9z"/>
<path class="st0" d="M26.9,39.5c1.4,1,2.5,1.3,3.1,0.5C29.5,40.7,28.3,40.5,26.9,39.5z"/>
<path class="st0" d="M28.7,39.1c-0.8-0.6-1.3-0.5-1.8,0.4C27.4,38.6,28,38.5,28.7,39.1z"/>
<path class="st0" d="M28.7,39.1c0.4,0.3,0.8,0.6,1.3,0.9C29.6,39.6,29.2,39.4,28.7,39.1z"/>
<path class="st0" d="M25.1,37L25.1,37l1.9,1.6c0,0,0,0,0,0L25.1,37z"/>
<g data-part="section" data-group="bottom_left_torso">
	<path class="st0" d="M30,58.9c0-1.5-0.1-3-0.2-4.5c0-0.2,0-0.3-0.1-0.5c-0.1-0.1-0.2-0.3-0.3-0.4c-0.9-0.6-1.8-1.2-3-2
		c0,2.5-0.2,4.9-0.5,7.4c-0.3,2,0.5,3.1,2,4.1c0.9,0.6,1.7,1.3,2.6,2l0,0c0,0,0,0,0,0l0.2-0.1c0.1-0.5,0.1-1,0-1.5
		C30.2,62.1,29.9,60.5,30,58.9z"/>
	<path class="st0" d="M30.9,45.5c1.7-0.9,3.1-2.2,5-2.1c0.1,0,0.3-0.2,0.3-0.3c0.1-1,0.2-2,0.3-3.2c0,0,0,0-0.1,0c0,0,0,0,0,0
		c-1.8,0.6-3.4,1.2-5,1.8c-0.1,0-0.2,0.2-0.3,0.4C30.3,43.1,30.6,44.2,30.9,45.5L30.9,45.5z"/>
	<path class="st0" d="M36,57.6c0-0.2-0.1-0.4-0.3-0.5C35.7,57,35.6,57,35.6,57c0,0,0,0-0.1,0c-1.3-0.2-2.7-0.4-4.1-0.6c0,0,0,0,0,0
		c0,0,0,0,0,0c0.1,0.6,0.1,1.1,0.2,1.5c0.5,3,1,6.1,1.5,9.1c0,0.5,0.2,1,0.5,1.4c0.9,0.7,1.8,1.3,2.7,1.9c0-0.5,0.1-0.8,0.1-1.1
		c0.1-2.5,0.1-5,0.3-7.5C36.7,60.3,36.5,58.9,36,57.6z"/>
	<path class="st0" d="M34.7,55.5c0.6,0.2,1.1,0.4,1.6,0.7c0.1-1.7,0.2-3.2,0.2-4.6c0,0,0,0,0-0.1c0,0,0,0,0,0c0-0.2-0.1-0.4-0.2-0.5
		c-0.1-0.1-0.3-0.1-0.6-0.1C34.9,50.9,34,51,33,51.1c-2.3,0.3-2.2,0.4-2.2,2.7c0,0,0,0,0,0c0,0,0,0,0,0c0,0.6,0.2,0.8,0.8,0.9
		C32.7,55,33.7,55.2,34.7,55.5z"/>
	<path class="st0" d="M35.7,49c0.3,0,0.6-0.4,0.6-0.6c0-0.3,0-0.5,0-0.8c0-1,0-2,0-3.1l0,0c-1.7,0.7-3.3,1.4-4.9,2.1
		c-0.1,0-0.3,0.2-0.3,0.3c-0.1,1-0.1,1.9-0.2,2.8c0,0,0,0,0,0c0,0,0,0,0,0C32.7,49.5,34.2,49.2,35.7,49z"/>
	<path class="st0" d="M27.1,50.9c0,0,0.1,0.1,0.1,0.1c0.1,0.1,0.2,0.2,0.3,0.2c0.1,0,0.1,0.1,0.2,0.1c0.1,0.1,0.2,0.1,0.2,0.2
		c0.2,0.1,0.3,0.1,0.5,0.2c0.2,0.1,0.3,0.1,0.5,0.1c0-1-0.2-2-0.6-3c-0.2-0.4-0.5-0.8-0.7-1.1c-0.5-0.8-1-1.5-1.6-2.3
		c-0.5-0.6-0.9-1.3-1.4-2c0,0,0,0,0,0c0,0,0,0,0,0C24,45.8,25.3,49.2,27.1,50.9z"/>
	<path class="st0" d="M28.6,44.4c-0.8-0.8-1.9-1.8-3.5-1.3l3.4,4.4l0.5-0.1C28.8,46.4,29.2,45,28.6,44.4z"/>
	<path class="st0" d="M29.5,42.7c0-0.3,0-0.7-0.1-0.9c0,0,0-0.1-0.1-0.1c-0.8-0.7-1.8-1.2-2.8-1.9c0,0.2-0.1,0.4,0,0.5
		c0,0.9,0.6,2,1.5,2.9c0.3,0.4,0.7,0.7,1.2,0.9C29.3,43.6,29.5,43.1,29.5,42.7z"/>
	<path class="st0" d="M26.8,42.5c-0.5-1-0.7-2.3-2.1-2.8c-0.1,0.4-0.2,0.8-0.2,1.1c0,0.3-0.1,0.7-0.1,1.1l2.3,0.8L26.8,42.5z"/>
	<path class="st0" d="M30,40c-0.5-0.3-0.9-0.6-1.3-0.9c-0.8-0.6-1.3-0.5-1.8,0.4C28.3,40.5,29.5,40.7,30,40z"/>
	<path class="st0" d="M27,38.6L25.1,37l-0.4,1.8C25.5,39.5,26.2,39.3,27,38.6z"/>
</g>
<path class="st0" d="M50.1,39C50.1,39,50.1,39,50.1,39c0.3-0.4,0.1-1.2,0.1-2.1l-2.1,1.8c0,0,0,0,0,0l2-1.8
	C50.1,37.8,50.4,38.6,50.1,39z"/>
<g data-part="section" data-group="bottom_right_torso">
	<path class="st0" d="M38.8,50.8L38.8,50.8C38.8,50.8,38.8,50.8,38.8,50.8L38.8,50.8z"/>
	<path class="st0" d="M38.9,42.8c0.1,0.3,0.3,0.5,0.6,0.5c1.3,0.2,2.5,0.7,3.5,1.5c0.3,0.2,0.7,0.4,1.2,0.7c0,0,0,0,0,0c0,0,0,0,0,0
		c0.2-0.7,0.2-1.5,0.2-2.2c-0.1-0.6-0.4-1.2-0.9-1.6c-1.5-0.7-3.1-1.2-4.7-1.8c0,0.9,0,1.6,0,2.3C38.9,42.4,38.9,42.6,38.9,42.8z"/>
	<path class="st0" d="M46.3,47.5C46.3,47.5,46.3,47.5,46.3,47.5l0.4,0l3.3-4.4c-1.4-0.3-2.9,0.3-3.7,1.5
		C45.8,45.1,46.3,46.5,46.3,47.5L46.3,47.5z"/>
	<path class="st0" d="M47.6,39.8c0.2-0.1,0.3-0.2,0.5-0.4c0,0,0,0,0,0v0c-0.8-1.1-1-1.1-3.1,0.6c0,0,0,0,0,0c0,0,0,0,0,0
		C45.7,40.6,46.4,40.6,47.6,39.8z"/>
	<path class="st0" d="M50.1,39C50.1,39,50.1,39,50.1,39c0.3-0.3,0-1.2,0-2.1l-2,1.8l0,0C48.8,39.2,49.6,39.5,50.1,39z"/>
	<path class="st0" d="M48.6,40.2c0-0.1,0-0.3-0.1-0.4c-1,0.6-1.9,1.2-2.8,1.9c-0.1,0.1-0.2,0.3-0.2,0.5c0,0,0,0,0,0c0,0,0,0,0,0
		c0.1,0.6,0.3,1.2,0.4,1.9v0C47.5,43.2,48.7,41.5,48.6,40.2z"/>
	<path class="st0" d="M39,48.7c0.1,0.1,0.4,0.2,0.6,0.3c1.5,0.3,3,0.5,4.6,0.8l0,0c0-0.3,0-0.6,0-1c0-0.5,0-1,0-1.5
		c0-0.2-0.1-0.4-0.3-0.6c0,0,0,0,0,0c0,0,0,0,0,0c-1.6-0.7-3.3-1.4-5-2.1c0,1.5,0,2.7,0,4C38.9,48.6,38.9,48.6,39,48.7z"/>
	<path class="st0" d="M43.8,56.3c-1.3,0.2-2.5,0.4-3.6,0.5c-0.6,0-1.1,0.4-1.2,1c-0.4,1.4-0.5,2.8-0.4,4.2c0.1,0.7,0.1,1.3,0.1,2
		c0.1,2,0.1,4.1,0.1,6.3v0c0.3-0.2,0.7-0.4,1-0.6c0.5-0.3,0.9-0.6,1.3-0.9c0.4-0.3,0.7-0.7,0.8-1.2c0.4-2.2,0.8-4.4,1.2-6.6
		C43.4,59.4,43.6,58,43.8,56.3C43.8,56.4,43.8,56.4,43.8,56.3C43.8,56.4,43.8,56.4,43.8,56.3z"/>
	<path class="st0" d="M48.7,51.7C48.7,51.7,48.7,51.7,48.7,51.7C48.7,51.7,48.7,51.7,48.7,51.7c-0.8,0.4-1.4,0.8-2,1.2
		c-1.1,0.4-1.7,1.5-1.5,2.6c0,0.8,0,1.6,0,2.4c0,1.9,0.1,3.9-0.9,5.7c-0.2,0.4,0.1,0.9,0.1,1.4l0.3,0.1c0.7-0.5,1.4-1,2-1.6
		c0.1-0.1,0.2-0.1,0.3-0.2c0.7-0.5,1.4-1.1,2-1.6c0.2-0.2,0.2-0.4,0.2-0.6c-0.1-2.3-0.2-4.6-0.3-6.9C48.9,53.4,48.8,52.6,48.7,51.7z
		"/>
	<path class="st0" d="M44.3,54.3C44.3,54.3,44.3,54.3,44.3,54.3c0-0.9,0-1.8-0.1-2.6c-0.1-0.2-0.3-0.4-0.5-0.4
		c-0.8-0.1-1.5-0.1-2.3-0.2c-0.8-0.1-1.7-0.2-2.6-0.2c0,0,0,0,0,0v5.3c0.1,0,0.2,0,0.4,0c1.5-0.6,3-1.6,4.7-1.4
		C44.1,54.6,44.3,54.5,44.3,54.3C44.3,54.3,44.3,54.3,44.3,54.3z"/>
	<path class="st1" d="M38.8,50.8C38.8,50.8,38.8,50.8,38.8,50.8"/>
	<path class="st0" d="M50.5,43.4C50.5,43.4,50.5,43.4,50.5,43.4c-0.2,0.3-0.4,0.6-0.6,0.9c-0.7,1.2-1.5,2.3-2.4,3.4
		c-1.1,1-1.5,2.6-0.9,4c0,0,0,0,0,0h0C49,51.3,51.5,46.1,50.5,43.4C50.5,43.4,50.5,43.4,50.5,43.4z"/>
	<path class="st0" d="M48.2,42.5C48.2,42.5,48.2,42.5,48.2,42.5L48.2,42.5c3.2-0.7,2.7-0.3,2.2-2.8L50,39.5L48.2,42.5z"/>
</g>
<g data-part="section" data-group="right_arm">
	<path data-disabled="top_right_torso" class="st0" d="M47,28.1l-0.3-0.5c-0.3-1.1-1.4-1.7-2.5-1.4c-0.1,0-0.2,0.1-0.3,0.1c-1.5,0.5-3,1-4.5,1.5
		c-0.3,0.1-0.6,0.4-0.6,0.8c-0.2,2.7-0.3,5.5-0.4,8.2c0,0.3,0,0.6,0.2,0.8c0.1,0.1,0.3,0.2,0.5,0.2c1.4,0.2,2.8,0.5,4.2,0.7
		c0.6,0.2,1.2,0.2,1.8,0c2.2-1.2,4.3-2.5,6.8-4C48.9,33.3,48.2,30.5,47,28.1z"/>
	<path class="st0" d="M57,34.8c0.4-2.4,0.9-4.7-1.1-6.6c-0.5-0.5-0.9-1.1-1.3-1.7c-0.2-0.2-0.4-0.5-0.6-0.5c0,0,0,0,0,0c0,0,0,0,0,0
		c-1,0-2.1,0.1-3.1,0.2l-0.2,0.3C54,28.4,55.8,31.4,57,34.8z"/>
	<path class="st0" d="M57.9,53l0.3-0.1c0-0.4,0.1-1-0.1-1.2c-1.4-1.5-2.9-2.9-4.6-4.5c0.3,1.2,0.3,2.4,0.9,3.1
		C55.5,51.4,56.7,52.2,57.9,53z"/>
	<path class="st0" d="M55.8,35.3L55.8,35.3C55.8,35.3,55.8,35.3,55.8,35.3l0.2-0.2c-0.6-1.5-1.2-3-1.8-4.5c-0.2-0.5-0.6-1-1-1.3
		c-0.8-0.7-1.7-1.2-2.3-2c-0.5-0.5-1-0.8-1.6-0.9c-0.6-0.1-1.2,0-1.9,0c1,2,2,4,3,6c0.1,0.2,0.3,0.3,0.5,0.4c0.9,0.5,1.8,1,2.6,1.4
		C54.3,34.7,55.1,35,55.8,35.3z"/>
	<path class="st0" d="M64.7,65c-1.9-3.4-3.8-6.7-5.7-10c0,0-0.1-0.1-0.1-0.1c-0.1-0.3-0.3-0.5-0.5-0.7c-1.4-0.8-2.9-1.7-4.4-2.5
		l-0.2,0.2c0.8,2,1.5,4,2.3,6c0.3,0.8,0.7,1.5,1.1,2.2c1.4,2,3,3.9,4.5,5.9c0.9,1.1,1.7,2.2,2.6,3.4c0,0,0,0,0,0c0,0,0,0,0,0
		C65.8,67.3,65.8,67,64.7,65z"/>
	<path class="st0" d="M57.5,49c0.2-1.4,0.7-2.7,0.6-4c0-0.4,0-0.7-0.1-1.1c-0.4-1-0.7-2.1-0.9-3.1c-0.2-0.7-0.3-1.4-0.4-2.1
		C56.6,38,56.4,37.4,56,37c-0.5-0.7-1.4-1.1-2.4-1.4h-0.1c-0.8-0.2-2.4,1.1-2.3,1.9c0.3,2.8,1.1,5.6,2.4,8.1
		C54.6,47.2,56,48,57.5,49z"/>
	<path class="st0" d="M59.3,52.5c0,0.2,0,0.5,0,0.7c0,0.2,0.1,0.5,0.1,0.7c0.1,0.4,0.3,0.9,0.6,1.3c2.5,4,4.9,8,7.4,11.9
		c0,0,0,0,0,0c0,0.1,0.1,0.1,0.1,0.1c0.1,0,0.1,0.1,0.2,0.1c0.1,0.1,0.3,0.1,0.4,0.2c0-0.1,0-0.3,0-0.4s0-0.3-0.1-0.4
		c-1.1-2.1-2.2-4.2-3.3-6.4c-0.2-0.3-0.4-0.7-0.5-1.1c0-0.5-0.1-0.9-0.2-1.4c-0.2-1.4-0.5-2.8-1-4.2c-0.2-0.6-0.4-1.2-0.6-1.8
		c-0.1-0.4-0.3-0.8-0.5-1.1c-0.5-1.1-1.3-2-2.3-2.7C59.5,49.7,59.4,51.1,59.3,52.5z"/>
	<path class="st0" d="M58.5,43.8c0,2-0.2,4-0.6,5.9h0c3.1-3,3.2-8,0.1-11.1c-0.2-0.2-0.4-0.4-0.6-0.6c0,0,0,0,0,0c0,0,0,0,0,0
		C57.9,40,58.3,41.9,58.5,43.8z"/>
	<path class="st0" d="M74.5,72.5c0.3,0,0.5-0.1,0.5-0.5c0-0.3-1.2-1.4-1.9-1.8c-1.4-1-2.9-1.7-4.5-2.2c-0.1,0.1-0.2,0.2-0.2,0.3
		c-0.2,1.2-1.3,2-2.5,1.9c-0.6,0-0.8,0.4-0.9,1c-0.2,2.6,0.2,5.3,1.1,7.8c0,0.2,0.3,0.7,0.5,0.7c0.2,0,0.4-0.2,0.4-0.4
		c0-0.1,0-0.3-0.1-0.4c-0.2-1-0.4-1.9-0.4-2.9c0.3,0.2,0.7,0.4,0.8,0.7c0.3,0.8,0.6,1.5,0.9,2.3c0,0.2,0.1,0.4,0.2,0.5
		c0,0.4,0.4,1.1,0.7,1.1c0,0,0,0,0,0c0.3,0,0.6-0.3,0.6-0.6c-0.1-0.6-0.4-1.2-0.8-1.7c0-0.5-0.1-0.9-0.2-1.4c-0.1-0.4-0.1-0.8,0-1.2
		c0.3,0.3,0.6,0.6,0.8,0.9c0.4,0.7,0.7,1.4,1,2.2c0.1,0.5,0.7,1.7,1.1,1.7c0.4,0,0.7-0.3,0.7-0.7c0-0.3-0.1-0.6-0.3-0.9
		c-0.3-1.3-1.3-2.4-1.3-3.7l0.4-0.2c0.5,0.8,1.1,1.7,1.6,2.5C73,78,73.7,79,74,79c0.3,0,0.6-0.3,0.6-0.6c0-0.1,0-0.1,0-0.2
		c0-0.1-0.1-0.2-0.1-0.2c-0.5-1-1.1-2-1.5-2.9c-0.5-0.9-0.9-1.8-1.4-2.6c-0.1-0.4-0.2-0.8-0.3-1.2l1.8,0.8
		C73.6,72.3,74,72.4,74.5,72.5z"/>
</g>
</svg>
