<?xml version="1.0" encoding="utf-8"?>
<!-- Generator: Adobe Illustrator 25.0.1, SVG Export Plug-In . SVG Version: 6.00 Build 0)  -->
<svg version="1.1" id="Layer_1" xmlns="http://www.w3.org/2000/svg" xmlns:xlink="http://www.w3.org/1999/xlink" x="0px" y="0px"
	 viewBox="0 0 600 300" style="enable-background:new 0 0 600 300;" xml:space="preserve">
<style type="text/css">
	.st0{fill:#313C4C;}
	.st1{fill:#F68A2B;}
	.st2{fill:#FFFFFF;}
	.st3{fill:none;}
	.st4{fill:none;stroke:#C4CB36;stroke-width:4;stroke-miterlimit:10;}
	.st5{fill:#C4CB36;}
</style>
<g id="background_x5F_lines-markers">
	<g>
		<rect x="12.62" y="64.22" class="st0" width="272.01" height="0.51"/>
		<polygon class="st0" points="120,214.85 120.14,214.35 88.42,214.35 88.42,214.85 		"/>
		<rect x="11.71" y="214.35" class="st0" width="49.87" height="0.51"/>
		<rect x="12.62" y="89.23" class="st0" width="245.17" height="0.53"/>
		<polygon class="st0" points="239.44,239.89 283.72,239.89 283.72,239.36 239.43,239.36 227,239.36 227.15,239.89 		"/>
		<rect x="236.36" y="214.35" class="st0" width="47.36" height="0.5"/>
		<polygon class="st0" points="116.72,239.89 127.31,239.88 219.72,239.89 219.87,239.36 127.31,239.36 116.72,239.36 79.18,239.36
			79.32,239.89 		"/>
		<rect x="12.62" y="39.18" class="st0" width="272.01" height="0.53"/>
		<polygon class="st0" points="11.71,288.89 11.71,290.45 22.92,290.45 23.36,288.89 		"/>
		<polygon class="st0" points="128.82,288.89 129.26,290.45 219.62,290.45 220.06,288.89 		"/>
		<polygon class="st0" points="226.81,288.89 227.25,290.45 265.9,290.45 266.34,288.89 		"/>
		<polygon class="st0" points="78.98,288.89 79.42,290.45 119.8,290.45 120.24,288.89 		"/>
		<polygon class="st0" points="274.01,288.89 274.45,290.45 283.72,290.45 283.72,288.89 		"/>
		<polygon class="st0" points="31.03,288.89 31.47,290.45 70.87,290.45 71.31,288.89 		"/>
		<polygon class="st0" points="121.72,264.9 127.3,264.9 221.56,264.9 239.43,264.9 283.72,264.9 283.72,264.39 239.44,264.39
			221.56,264.39 127.31,264.39 121.72,264.39 16.71,264.39 16.71,264.9 		"/>
		<polygon class="st0" points="23.06,164.82 23.2,164.3 11.71,164.3 11.71,164.82 		"/>
		<polygon class="st0" points="70.98,239.89 71.12,239.36 11.71,239.36 11.71,239.89 		"/>
		<polygon class="st0" points="210.43,214.85 210.43,214.35 128.92,214.35 129.06,214.85 		"/>
		<rect x="11.71" y="139.28" class="st0" width="1.73" height="0.52"/>
		<polygon class="st0" points="12.62,114.26 12.62,114.77 266.83,114.77 266.97,114.26 		"/>
		<rect x="41.2" y="139.28" class="st0" width="243.43" height="0.52"/>
		<rect x="138.74" y="189.32" class="st0" width="144.98" height="0.53"/>
		<rect x="11.71" y="189.32" class="st0" width="99.28" height="0.53"/>
		<polygon class="st0" points="284.63,164.82 284.63,164.3 32.1,164.3 32.25,164.82 		"/>
		<polygon class="st0" points="274.44,114.77 283.72,114.77 283.72,114.26 274.29,114.26 		"/>
		<path class="st1" d="M271.52,280.08c0,0-0.41-0.25-1.35-0.25s-1.35,0.25-1.35,0.25l-2.48,8.81l-0.44,1.56l-0.45,1.61
			c0,0,0.79,0.98,4.73,0.98c3.94,0,4.73-0.98,4.73-0.98l-0.45-1.61l-0.44-1.56L271.52,280.08z"/>
		<path class="st1" d="M271.52,104.44c0,0-0.41-0.25-1.35-0.25s-1.35,0.25-1.35,0.25l-2.77,9.81l-0.15,0.52l-0.47,1.65
			c0,0,0.79,0.98,4.73,0.98c3.94,0,4.73-0.98,4.73-0.98l-0.47-1.65l-0.15-0.52L271.52,104.44z"/>
		<path class="st1" d="M22.47,166.91c0,0,0.79,0.98,4.73,0.98c3.94,0,4.73-0.98,4.73-0.98l-0.59-2.1l-0.15-0.52l-2.64-9.37
			c0,0-0.41-0.25-1.35-0.25s-1.35,0.25-1.35,0.25l-2.64,9.37l-0.15,0.52L22.47,166.91z"/>
		<path class="st1" d="M28.54,280.08c0,0-0.41-0.25-1.35-0.25s-1.35,0.25-1.35,0.25l-2.48,8.81l-0.44,1.56l-0.45,1.61
			c0,0,0.79,0.98,4.73,0.98c3.94,0,4.73-0.98,4.73-0.98l-0.45-1.61l-0.44-1.56L28.54,280.08z"/>
		<path class="st1" d="M70.42,241.86c0,0,0.79,0.98,4.73,0.98c3.94,0,4.73-0.98,4.73-0.98l-0.56-1.97l-0.15-0.52l-2.67-9.49
			c0,0-0.41-0.25-1.35-0.25s-1.35,0.25-1.35,0.25l-2.67,9.49l-0.15,0.52L70.42,241.86z"/>
		<path class="st1" d="M76.5,280.08c0,0-0.41-0.25-1.35-0.25s-1.35,0.25-1.35,0.25l-2.48,8.81l-0.44,1.56l-0.45,1.61
			c0,0,0.79,0.98,4.73,0.98c3.94,0,4.73-0.98,4.73-0.98l-0.45-1.61l-0.44-1.56L76.5,280.08z"/>
		<path class="st1" d="M218.25,241.86c0,0,0.79,0.98,4.73,0.98c3.94,0,4.73-0.98,4.73-0.98l-0.56-1.97l-0.15-0.52l-2.67-9.49
			c0,0-0.41-0.25-1.35-0.25c-0.94,0-1.35,0.25-1.35,0.25l-2.67,9.49l-0.15,0.52L218.25,241.86z"/>
		<path class="st1" d="M224.33,280.08c0,0-0.41-0.25-1.35-0.25c-0.94,0-1.35,0.25-1.35,0.25l-2.48,8.81l-0.44,1.56l-0.45,1.61
			c0,0,0.79,0.98,4.73,0.98c3.94,0,4.73-0.98,4.73-0.98l-0.45-1.61l-0.44-1.56L224.33,280.08z"/>
		<path class="st1" d="M119.35,217.18c0,0,0.79,0.98,4.73,0.98c3.94,0,4.73-0.98,4.73-0.98l-0.66-2.33l-0.14-0.5l-2.58-9.15
			c0,0-0.41-0.25-1.35-0.25c-0.94,0-1.35,0.25-1.35,0.25l-2.58,9.15l-0.14,0.5L119.35,217.18z"/>
		<path class="st1" d="M125.42,280.08c0,0-0.41-0.25-1.35-0.25c-0.94,0-1.35,0.25-1.35,0.25l-2.48,8.81l-0.44,1.56l-0.45,1.61
			c0,0,0.79,0.98,4.73,0.98c3.94,0,4.73-0.98,4.73-0.98l-0.45-1.61l-0.44-1.56L125.42,280.08z"/>
		<path class="st0" d="M17.83,149.37h18.06c2.42,0,4.39-1.98,4.39-4.39v-5.18v-0.52v-5.25c0-2.42-1.98-4.39-4.39-4.39H17.83
			c-2.42,0-4.39,1.98-4.39,4.39v5.25v0.52v5.18C13.44,147.39,15.42,149.37,17.83,149.37z"/>
		<path class="st0" d="M61.58,219.81c0,2.42,1.98,4.39,4.39,4.39h18.06c2.42,0,4.39-1.98,4.39-4.39v-4.96v-0.5v-5.49
			c0-2.42-1.98-4.39-4.39-4.39H65.97c-2.42,0-4.39,1.98-4.39,4.39v5.49v0.5V219.81z"/>
		<path class="st0" d="M115.38,199.56h18.06c2.42,0,4.39-1.98,4.39-4.39v-5.33v-0.53v-5.1c0-2.42-1.98-4.39-4.39-4.39h-18.06
			c-2.42,0-4.39,1.98-4.39,4.39v5.1v0.53v5.33C110.99,197.59,112.96,199.56,115.38,199.56z"/>
		<path class="st0" d="M209.52,219.81c0,2.42,1.98,4.39,4.39,4.39h18.06c2.42,0,4.39-1.98,4.39-4.39v-4.96v-0.5v-5.49
			c0-2.42-1.98-4.39-4.39-4.39h-18.06c-2.42,0-4.39,1.98-4.39,4.39v5.49v0.5V219.81z"/>
		<path class="st0" d="M283.72,85.22c0-2.42-1.98-4.39-4.39-4.39h-18.06c-2.42,0-4.39,1.98-4.39,4.39v4v0.53v6.43
			c0,2.42,1.98,4.39,4.39,4.39h18.06c2.42,0,4.39-1.98,4.39-4.39V85.22z"/>
	</g>
	<g>
		<path class="st2" d="M19.75,142.33c0.24-0.28,1.81-2.07,2.29-2.8c0.36-0.54,0.78-1.37,0.78-2.15c0-1.21-0.86-2.03-1.99-2.03
			c-1.37,0-2.09,1.09-2.13,2.23h-2.69c0.12-2.74,2.05-4.48,4.71-4.48c3.12,0,4.73,2.13,4.73,4.26c0,2.07-1.39,3.56-2.43,4.69
			l-2.31,2.51h4.85v2.25H15.8L19.75,142.33z"/>
		<path class="st2" d="M36.36,135.65h-4.46l-0.48,2.11c0.26-0.04,0.56-0.08,0.91-0.08c1.43,0,2.69,0.56,3.46,1.35
			c1.07,1.09,1.19,2.41,1.19,3.22c0,1.45-0.44,2.57-1.37,3.5c-1.07,1.07-2.25,1.37-3.68,1.37c-0.72,0-1.87-0.06-2.9-0.56
			c-0.54-0.26-1.15-0.68-1.63-1.15l0.86-2.25c0.36,0.48,0.78,0.88,1.39,1.21c0.66,0.36,1.31,0.5,1.95,0.5c1.11,0,1.73-0.46,2.05-0.8
			c0.38-0.4,0.7-1.09,0.7-1.95c0-0.76-0.22-1.35-0.78-1.85c-0.68-0.6-1.45-0.68-2.09-0.68c-0.95,0-1.89,0.26-2.9,0.86l1.59-7.04
			h6.19V135.65z"/>
	</g>
	<g>
		<path class="st2" d="M68.86,210.6h-1.93v-2.25h4.54v13.41h-2.61V210.6z"/>
		<path class="st2" d="M74.82,215.05c0-4.61,2.51-7,5.19-7s5.19,2.39,5.19,7.02c0,4.61-2.51,7-5.19,7S74.82,219.67,74.82,215.05z
			 M77.43,215.05c0,3.5,1.43,4.77,2.57,4.77c1.15,0,2.57-1.27,2.57-4.77c0-3.48-1.45-4.75-2.57-4.75
			C78.88,210.3,77.43,211.57,77.43,215.05z"/>
	</g>
	<g>
		<path class="st2" d="M118.21,185.64h-1.93v-2.25h4.54v13.41h-2.61V185.64z"/>
		<path class="st2" d="M132.45,185.64h-4.46l-0.48,2.11c0.26-0.04,0.56-0.08,0.91-0.08c1.43,0,2.69,0.56,3.46,1.35
			c1.07,1.09,1.19,2.41,1.19,3.22c0,1.45-0.44,2.57-1.37,3.5c-1.07,1.07-2.25,1.37-3.68,1.37c-0.72,0-1.87-0.06-2.9-0.56
			c-0.54-0.26-1.15-0.68-1.63-1.15l0.86-2.25c0.36,0.48,0.78,0.88,1.39,1.21c0.66,0.36,1.31,0.5,1.95,0.5c1.11,0,1.73-0.46,2.05-0.8
			c0.38-0.4,0.7-1.09,0.7-1.95c0-0.76-0.22-1.35-0.78-1.85c-0.68-0.6-1.45-0.68-2.09-0.68c-0.95,0-1.89,0.26-2.9,0.87l1.59-7.04
			h6.19V185.64z"/>
	</g>
	<g>
		<path class="st2" d="M216.81,209.69h-1.93v-2.25h4.54v13.41h-2.61V209.69z"/>
		<path class="st2" d="M222.76,214.13c0-4.61,2.51-7,5.19-7s5.19,2.39,5.19,7.02c0,4.61-2.51,7-5.19,7S222.76,218.76,222.76,214.13z
			 M225.37,214.13c0,3.5,1.43,4.77,2.57,4.77c1.15,0,2.57-1.27,2.57-4.77c0-3.48-1.45-4.75-2.57-4.75
			C226.82,209.39,225.37,210.65,225.37,214.13z"/>
	</g>
	<g>
		<path class="st2" d="M259.9,87.75c0.24-2.43,2.07-3.8,4.36-3.8c2.57,0,4.2,1.45,4.2,3.7c0,0.7-0.14,2.03-1.55,2.82
			c0.54,0.22,2.05,0.99,2.05,3.2c0,2.75-2.13,4.3-4.79,4.3c-2.57,0-4.61-1.59-4.83-4.16h2.61c0.16,1.11,0.95,1.91,2.23,1.91
			c1.51,0,2.15-1.11,2.15-2.13c0-0.99-0.6-2.09-2.23-2.09h-0.34V89.6h0.36c1.29,0,1.83-0.91,1.83-1.83c0-1.07-0.7-1.77-1.77-1.77
			c-0.93,0-1.79,0.6-1.85,1.75H259.9z"/>
		<path class="st2" d="M279.79,86.5h-4.46l-0.48,2.11c0.26-0.04,0.56-0.08,0.91-0.08c1.43,0,2.69,0.56,3.46,1.35
			c1.07,1.09,1.19,2.41,1.19,3.22c0,1.45-0.44,2.57-1.37,3.5c-1.07,1.07-2.25,1.37-3.68,1.37c-0.72,0-1.87-0.06-2.9-0.56
			c-0.54-0.26-1.15-0.68-1.63-1.15l0.86-2.25c0.36,0.48,0.78,0.88,1.39,1.21c0.66,0.36,1.31,0.5,1.95,0.5c1.11,0,1.73-0.46,2.05-0.8
			c0.38-0.4,0.7-1.09,0.7-1.95c0-0.76-0.22-1.35-0.78-1.85c-0.68-0.6-1.45-0.68-2.09-0.68c-0.95,0-1.89,0.26-2.9,0.87l1.59-7.04
			h6.19V86.5z"/>
	</g>
	<path class="st1" d="M174.18,280.08c0,0-0.41-0.25-1.35-0.25c-0.94,0-1.35,0.25-1.35,0.25l-2.48,8.81l-0.44,1.56l-0.45,1.61
		c0,0,0.79,0.98,4.73,0.98c3.94,0,4.73-0.98,4.73-0.98l-0.45-1.61l-0.44-1.56L174.18,280.08z"/>
	<path class="st1" d="M174.18,29.04c0,0-0.41-0.25-1.35-0.25c-0.94,0-1.35,0.25-1.35,0.25l-2.77,9.81l-0.15,0.52l-0.47,1.65
		c0,0,0.79,0.98,4.73,0.98c3.94,0,4.73-0.98,4.73-0.98l-0.47-1.65l-0.15-0.52L174.18,29.04z"/>
	<path class="st0" d="M186.38,9.82c0-2.42-1.98-4.39-4.39-4.39h-18.06c-2.42,0-4.39,1.98-4.39,4.39v4v0.53v6.43
		c0,2.42,1.98,4.39,4.39,4.39h18.06c2.42,0,4.39-1.98,4.39-4.39V9.82z"/>
	<g>
		<path class="st2" d="M171.03,11.09h-4.46l-0.48,2.11c0.26-0.04,0.56-0.08,0.91-0.08c1.43,0,2.69,0.56,3.46,1.35
			c1.07,1.09,1.19,2.41,1.19,3.22c0,1.45-0.44,2.57-1.37,3.5c-1.07,1.07-2.25,1.37-3.68,1.37c-0.72,0-1.87-0.06-2.9-0.56
			c-0.54-0.26-1.15-0.68-1.63-1.15l0.86-2.25c0.36,0.48,0.78,0.88,1.39,1.21c0.66,0.36,1.31,0.5,1.95,0.5c1.11,0,1.73-0.46,2.05-0.8
			c0.38-0.4,0.7-1.09,0.7-1.95c0-0.76-0.22-1.35-0.78-1.85c-0.68-0.6-1.45-0.68-2.09-0.68c-0.95,0-1.89,0.26-2.9,0.86l1.59-7.04
			h6.19V11.09z"/>
		<path class="st2" d="M173.48,15.54c0-4.61,2.51-7,5.19-7s5.19,2.39,5.19,7.02c0,4.61-2.51,7-5.19,7S173.48,20.17,173.48,15.54z
			 M176.09,15.54c0,3.5,1.43,4.77,2.57,4.77c1.15,0,2.57-1.27,2.57-4.77c0-3.48-1.45-4.75-2.57-4.75
			C177.54,10.79,176.09,12.06,176.09,15.54z"/>
	</g>
	<g>
		<path class="st3" d="M66.2,240.1"/>
	</g>
	<g>
		<path class="st3" d="M66.2,289.21"/>
	</g>
	<g>
		<path class="st3" d="M114.24,214.66"/>
	</g>
	<g>
		<path class="st3" d="M114.24,289.21"/>
	</g>
	<rect x="312.98" y="288.93" class="st0" width="272.01" height="1.49"/>
	<rect x="312.98" y="215.34" class="st0" width="272.01" height="1.57"/>
	<rect x="312.98" y="139.49" class="st0" width="272.01" height="1.57"/>
	<rect x="312.98" y="64.94" class="st0" width="272.01" height="1.57"/>
	<path class="st1" d="M328.26,219.99c0,0,1.19,1.46,7.09,1.46s7.09-1.46,7.09-1.46l-0.83-2.96l-0.22-0.78l-4.01-14.23
		c0,0-0.62-0.37-2.03-0.37s-2.03,0.37-2.03,0.37l-4.01,14.23l-0.22,0.78L328.26,219.99z"/>
	<path class="st1" d="M558.71,219.99c0,0,1.19,1.46,7.09,1.46s7.09-1.46,7.09-1.46l-0.83-2.96l-0.22-0.78l-4.01-14.23
		c0,0-0.62-0.37-2.03-0.37s-2.03,0.37-2.03,0.37l-4.01,14.23l-0.22,0.78L558.71,219.99z"/>
	<g>
		<path class="st1" d="M417.09,219.99c0,0,1.19,1.46,7.09,1.46c5.9,0,7.09-1.46,7.09-1.46l-0.83-2.96l-0.22-0.78l-4.01-14.23
			c0,0-0.62-0.37-2.03-0.37c-1.41,0-2.03,0.37-2.03,0.37l-4.01,14.23l-0.22,0.78L417.09,219.99z"/>
		<path class="st1" d="M469.88,219.99c0,0,1.19,1.46,7.09,1.46c5.9,0,7.09-1.46,7.09-1.46l-0.83-2.96l-0.22-0.78L479,202.02
			c0,0-0.62-0.37-2.03-0.37c-1.41,0-2.03,0.37-2.03,0.37l-4.01,14.23l-0.22,0.78L469.88,219.99z"/>
	</g>
	<path class="st1" d="M357.09,70.66c0,0,1.19,1.46,7.09,1.46c5.9,0,7.09-1.46,7.09-1.46l-0.83-2.96l-0.22-0.78l-4.01-14.23
		c0,0-0.62-0.37-2.03-0.37c-1.41,0-2.03,0.37-2.03,0.37l-4.01,14.23l-0.22,0.78L357.09,70.66z"/>
	<path class="st1" d="M529.88,70.66c0,0,1.19,1.46,7.09,1.46s7.09-1.46,7.09-1.46l-0.83-2.96l-0.22-0.78L539,52.68
		c0,0-0.62-0.37-2.03-0.37s-2.03,0.37-2.03,0.37l-4.01,14.23l-0.22,0.78L529.88,70.66z"/>
	<path class="st1" d="M443.77,53.66c0,0,1.19,1.46,7.09,1.46s7.09-1.46,7.09-1.46l-0.83-2.96l-0.22-0.78l-4.01-14.23
		c0,0-0.62-0.37-2.03-0.37s-2.03,0.37-2.03,0.37l-4.01,14.23l-0.22,0.78L443.77,53.66z"/>
	<g>
		<path class="st3" d="M572.99,226.85"/>
	</g>
	<g>
		<path class="st3" d="M461.09,284.39"/>
	</g>
	<circle class="st0" cx="335.35" cy="189.32" r="9.49"/>
	<circle class="st0" cx="424.19" cy="189.32" r="9.49"/>
	<circle class="st0" cx="476.97" cy="189.32" r="9.49"/>
	<circle class="st0" cx="565.8" cy="189.32" r="9.49"/>
	<circle class="st0" cx="364.23" cy="39.99" r="9.49"/>
	<circle class="st0" cx="536.97" cy="39.99" r="9.49"/>
	<g>
		<path class="st2" d="M423.24,190.85c0.17-0.2,1.27-1.45,1.61-1.96c0.25-0.38,0.55-0.96,0.55-1.51c0-0.85-0.61-1.42-1.4-1.42
			c-0.96,0-1.47,0.76-1.5,1.57h-1.89c0.08-1.92,1.44-3.15,3.3-3.15c2.19,0,3.32,1.5,3.32,2.99c0,1.45-0.97,2.5-1.71,3.29l-1.62,1.76
			h3.4V194h-6.83L423.24,190.85z"/>
	</g>
	<g>
		<path class="st2" d="M334.94,186.16h-1.36v-1.58h3.19V194h-1.83V186.16z"/>
	</g>
	<g>
		<path class="st2" d="M475.99,190.85c0.17-0.2,1.27-1.45,1.61-1.96c0.25-0.38,0.55-0.96,0.55-1.51c0-0.85-0.61-1.42-1.4-1.42
			c-0.96,0-1.47,0.76-1.5,1.57h-1.89c0.08-1.92,1.44-3.15,3.3-3.15c2.19,0,3.32,1.5,3.32,2.99c0,1.45-0.97,2.5-1.71,3.29l-1.62,1.76
			h3.4V194h-6.83L475.99,190.85z"/>
	</g>
	<g>
		<path class="st2" d="M565.34,186.16h-1.36v-1.58h3.19V194h-1.83V186.16z"/>
	</g>
	<g>
		<path class="st2" d="M366.85,41.79h1.1v1.47h-1.1v1.78h-1.72v-1.78h-4.6v-0.82l4.67-6.82h1.65V41.79z M365.13,41.79V38.2
			l-2.43,3.58H365.13z"/>
	</g>
	<g>
		<path class="st2" d="M533.69,38.07c0.17-1.71,1.45-2.67,3.06-2.67c1.81,0,2.95,1.02,2.95,2.6c0,0.49-0.1,1.43-1.09,1.98
			c0.38,0.16,1.44,0.69,1.44,2.24c0,1.93-1.5,3.02-3.36,3.02c-1.81,0-3.23-1.12-3.39-2.92h1.83c0.11,0.78,0.66,1.34,1.57,1.34
			c1.06,0,1.51-0.78,1.51-1.5c0-0.69-0.42-1.47-1.57-1.47h-0.24v-1.33h0.25c0.9,0,1.28-0.63,1.28-1.28c0-0.75-0.49-1.24-1.24-1.24
			c-0.65,0-1.26,0.42-1.3,1.23H533.69z"/>
	</g>
	<rect class="st3" width="600" height="300"/>
</g>
<g id="short-mid-distance" data-part="section" data-group="short-distance">
	<g>
		<g>
			<line class="st4" x1="114.24" y1="289.21" x2="114.24" y2="220.97"/>
			<g>
				<polygon class="st5" points="106.95,221.94 121.53,221.94 114.24,214.66 				"/>
			</g>
		</g>
	</g>
	<g>
		<g>
			<line class="st4" x1="133.34" y1="282.9" x2="133.34" y2="214.66"/>
			<g>
				<polygon class="st5" points="126.05,281.92 140.63,281.92 133.34,289.21 				"/>
			</g>
		</g>
	</g>
</g>
<g id="short-distance" data-part="section" data-group="short-distance">
	<g>
		<g>
			<line class="st4" x1="214.67" y1="289.21" x2="214.67" y2="246.41"/>
			<g>
				<polygon class="st5" points="207.38,247.39 221.96,247.39 214.67,240.1 				"/>
			</g>
		</g>
	</g>
	<g>
		<g>
			<line class="st4" x1="232.85" y1="282.9" x2="232.85" y2="240.1"/>
			<g>
				<polygon class="st5" points="225.56,281.92 240.14,281.92 232.85,289.21 				"/>
			</g>
		</g>
	</g>
	<g>
		<g>
			<line class="st4" x1="66.2" y1="289.21" x2="66.2" y2="246.41"/>
			<g>
				<polygon class="st5" points="58.91,247.39 73.49,247.39 66.2,240.1 				"/>
			</g>
		</g>
	</g>
	<g>
		<g>
			<line class="st4" x1="84.38" y1="282.9" x2="84.38" y2="240.1"/>
			<g>
				<polygon class="st5" points="77.09,281.92 91.67,281.92 84.38,289.21 				"/>
			</g>
		</g>
	</g>
</g>
<g id="long-distance" data-part="section" data-group="long-distance">
	<g>
		<g>
			<line class="st4" x1="164.58" y1="289.21" x2="164.58" y2="45.66"/>
			<g>
				<polygon class="st5" points="157.29,46.64 171.87,46.64 164.58,39.35 				"/>
			</g>
		</g>
	</g>
	<g>
		<g>
			<line class="st4" x1="182.77" y1="282.9" x2="182.77" y2="39.35"/>
			<g>
				<polygon class="st5" points="175.48,281.92 190.06,281.92 182.77,289.21 				"/>
			</g>
		</g>
	</g>
</g>
<g id="medium-distance" data-part="section" data-group="medium-distance">
	<g>
		<g>
			<line class="st4" x1="18.21" y1="289.21" x2="18.21" y2="171.45"/>
			<g>
				<polygon class="st5" points="10.92,172.43 25.5,172.43 18.21,165.14 				"/>
			</g>
		</g>
	</g>
	<g>
		<g>
			<line class="st4" x1="36.4" y1="282.9" x2="36.4" y2="165.14"/>
			<g>
				<polygon class="st5" points="29.11,281.92 43.69,281.92 36.4,289.21 				"/>
			</g>
		</g>
	</g>
	<g>
		<g>
			<line class="st4" x1="261.96" y1="289.21" x2="261.96" y2="121.52"/>
			<g>
				<polygon class="st5" points="254.68,122.5 269.25,122.5 261.96,115.21 				"/>
			</g>
		</g>
	</g>
	<g>
		<g>
			<line class="st4" x1="280.15" y1="282.9" x2="280.15" y2="115.21"/>
			<g>
				<polygon class="st5" points="272.86,281.92 287.44,281.92 280.15,289.21 				"/>
			</g>
		</g>
	</g>
</g>
<g id="over-in-out" data-part="section" data-group="skill-one">
	<g>
		<g>
			<line class="st4" x1="441.65" y1="58.67" x2="382.68" y2="58.67"/>
			<g>
				<polygon class="st5" points="383.66,65.96 383.66,51.38 376.37,58.67 				"/>
			</g>
		</g>
	</g>
	<g>
		<g>
			<line class="st4" x1="460.79" y1="58.67" x2="519.75" y2="58.67"/>
			<g>
				<polygon class="st5" points="518.78,51.38 518.78,65.96 526.06,58.67 				"/>
			</g>
		</g>
	</g>
</g>
<g id="over-speed" data-part="section" data-group="skill-two">
	<g>
		<g>
			<line class="st4" x1="450.86" y1="291.08" x2="450.86" y2="77.4"/>
			<g>
				<polygon class="st5" points="443.57,78.38 458.15,78.38 450.86,71.09 				"/>
			</g>
		</g>
	</g>
</g>
<g id="whip-in-out" data-part="section" data-group="skill-three">
	<g>
		<g>
			<line class="st4" x1="344.24" y1="207.14" x2="403.21" y2="207.14"/>
			<g>
				<polygon class="st5" points="402.23,199.85 402.23,214.43 409.52,207.14 				"/>
			</g>
		</g>
	</g>
	<g>
		<g>
			<line class="st4" x1="556.58" y1="207.14" x2="497.62" y2="207.14"/>
			<g>
				<polygon class="st5" points="498.59,214.43 498.59,199.85 491.31,207.14 				"/>
			</g>
		</g>
	</g>
</g>
<g id="whip-speed" data-part="section" data-group="skill-two">
	<g>
		<g>
			<line class="st4" x1="438.99" y1="283.79" x2="333.87" y2="229.74"/>
			<g>
				<polygon class="st5" points="331.41,236.67 338.08,223.7 328.26,226.85 				"/>
			</g>
		</g>
	</g>
	<g>
		<g>
			<line class="st4" x1="461.09" y1="284.39" x2="567.37" y2="229.74"/>
			<g>
				<polygon class="st5" points="563.17,223.7 569.84,236.67 572.99,226.85 				"/>
			</g>
		</g>
	</g>
</g>
</svg>
