<?xml version="1.0" encoding="utf-8"?>
<!-- Generator: Adobe Illustrator 24.3.0, SVG Export Plug-In . SVG Version: 6.00 Build 0)  -->
<svg version="1.1" xmlns="http://www.w3.org/2000/svg" xmlns:xlink="http://www.w3.org/1999/xlink" x="0px" y="0px"
	 viewBox="0 0 597.8 296.2" style="enable-background:new 0 0 597.8 296.2;" xml:space="preserve">
<g id="forty-yard-dash">
	<g>
		<rect x="38.9" y="268.7" style="fill:#313C4C;" width="240.8" height="27.4"/>
	</g>
	<g>
		<g>
			<path style="fill:#C4C5C4;" d="M105.4,282.2h1.6v2.7h-1.6v2.8h-3.3v-2.8h-6.6v-2.3l5.2-8.5h4.6V282.2z M102.2,282.2v-5.3
				l-3.1,5.3H102.2z"/>
		</g>
		<g>
			<path style="fill:#C4C5C4;" d="M108,280.9c0-1.1,0.1-2.1,0.4-2.9c0.3-0.9,0.7-1.6,1.2-2.3c0.5-0.6,1.1-1.1,1.8-1.4
				s1.5-0.5,2.3-0.5c0.8,0,1.6,0.2,2.3,0.5s1.3,0.8,1.8,1.4c0.5,0.6,0.9,1.4,1.2,2.3c0.3,0.9,0.4,1.9,0.4,2.9s-0.1,2.1-0.4,2.9
				c-0.3,0.9-0.7,1.6-1.2,2.3c-0.5,0.6-1.1,1.1-1.8,1.5s-1.5,0.5-2.3,0.5c-0.9,0-1.6-0.2-2.3-0.5s-1.3-0.8-1.8-1.5
				c-0.5-0.6-0.9-1.4-1.2-2.3C108.1,282.9,108,282,108,280.9z M111.4,280.9c0,0.6,0.1,1.1,0.2,1.6c0.1,0.5,0.3,0.9,0.5,1.3
				c0.2,0.4,0.4,0.6,0.7,0.8c0.3,0.2,0.6,0.3,0.9,0.3c0.3,0,0.6-0.1,0.9-0.3s0.5-0.5,0.7-0.8c0.2-0.4,0.3-0.8,0.5-1.3s0.2-1,0.2-1.6
				c0-0.6-0.1-1.1-0.2-1.6s-0.3-0.9-0.5-1.3c-0.2-0.4-0.4-0.6-0.7-0.8s-0.6-0.3-0.9-0.3c-0.3,0-0.7,0.1-0.9,0.3
				c-0.3,0.2-0.5,0.5-0.7,0.8c-0.2,0.4-0.4,0.8-0.5,1.3C111.5,279.8,111.4,280.3,111.4,280.9z"/>
		</g>
		<g>
			<path style="fill:#C4C5C4;" d="M119.8,281.5h5.2v2.7h-5.2V281.5z"/>
		</g>
		<g>
			<path style="fill:#C4C5C4;" d="M129.5,286.4l-4.5-8h3.8l2.5,4.7l2.4-4.7h3.7l-7.4,13.8h-3.7L129.5,286.4z"/>
		</g>
		<g>
			<path style="fill:#C4C5C4;" d="M145.2,278.5h3.3v9.2h-3.3v-1c-0.7,0.9-1.6,1.3-2.8,1.3c-0.7,0-1.3-0.1-1.9-0.4s-1.1-0.6-1.5-1
				c-0.4-0.4-0.7-1-1-1.6c-0.2-0.6-0.4-1.3-0.4-2c0-0.7,0.1-1.3,0.3-1.9c0.2-0.6,0.5-1.1,1-1.6c0.4-0.4,0.9-0.8,1.5-1.1
				s1.2-0.4,1.9-0.4c1.2,0,2.1,0.4,2.9,1.2V278.5z M141.1,283c0,0.3,0.1,0.6,0.2,0.8c0.1,0.3,0.3,0.5,0.4,0.7
				c0.2,0.2,0.4,0.3,0.7,0.5c0.3,0.1,0.5,0.2,0.8,0.2c0.3,0,0.6-0.1,0.8-0.2c0.3-0.1,0.5-0.3,0.7-0.5s0.3-0.4,0.5-0.7
				c0.1-0.3,0.2-0.5,0.2-0.8s-0.1-0.6-0.2-0.8c-0.1-0.3-0.3-0.5-0.5-0.7c-0.2-0.2-0.4-0.3-0.7-0.5c-0.3-0.1-0.5-0.2-0.8-0.2
				c-0.3,0-0.6,0.1-0.8,0.2c-0.3,0.1-0.5,0.3-0.7,0.5c-0.2,0.2-0.3,0.4-0.4,0.7C141.1,282.5,141.1,282.8,141.1,283z"/>
		</g>
		<g>
			<path style="fill:#C4C5C4;" d="M150.6,278.5h3.3v1.5c0.3-0.6,0.8-1,1.3-1.3s1.1-0.4,1.8-0.4c0.1,0,0.2,0,0.3,0s0.2,0,0.4,0v3.1
				c-0.4-0.2-0.9-0.3-1.4-0.3c-0.8,0-1.3,0.2-1.7,0.7c-0.4,0.4-0.6,1.1-0.6,2v4h-3.3V278.5z"/>
		</g>
		<g>
			<path style="fill:#C4C5C4;" d="M166.3,272.7h3.3v14.9h-3.3v-1c-0.7,0.9-1.6,1.3-2.8,1.3c-0.7,0-1.3-0.1-1.9-0.4s-1.1-0.6-1.5-1
				s-0.7-1-1-1.6c-0.2-0.6-0.4-1.2-0.4-1.9c0-0.7,0.1-1.3,0.3-1.9c0.2-0.6,0.5-1.1,0.9-1.6c0.4-0.4,0.9-0.8,1.5-1.1
				c0.6-0.3,1.2-0.4,1.9-0.4c1.2,0,2.1,0.4,2.9,1.2V272.7z M162.2,283c0,0.3,0.1,0.6,0.2,0.8c0.1,0.3,0.3,0.5,0.4,0.7
				c0.2,0.2,0.4,0.3,0.7,0.5c0.3,0.1,0.5,0.2,0.8,0.2c0.3,0,0.6-0.1,0.8-0.2c0.3-0.1,0.5-0.3,0.7-0.5s0.3-0.4,0.5-0.7
				c0.1-0.3,0.2-0.5,0.2-0.8s-0.1-0.6-0.2-0.8c-0.1-0.3-0.3-0.5-0.5-0.7c-0.2-0.2-0.4-0.3-0.7-0.5c-0.3-0.1-0.5-0.2-0.8-0.2
				s-0.6,0.1-0.8,0.2c-0.3,0.1-0.5,0.3-0.7,0.5c-0.2,0.2-0.3,0.4-0.5,0.7C162.2,282.5,162.2,282.8,162.2,283z"/>
		</g>
		<g>
			<path style="fill:#C4C5C4;" d="M178.2,274.1h5.2c0.9,0,1.8,0.2,2.6,0.6s1.5,0.9,2.1,1.5c0.6,0.6,1.1,1.3,1.4,2.2
				c0.3,0.8,0.5,1.7,0.5,2.6c0,0.9-0.2,1.7-0.5,2.6c-0.3,0.8-0.8,1.5-1.4,2.2s-1.3,1.1-2.1,1.5c-0.8,0.4-1.7,0.6-2.6,0.6h-5.2V274.1
				z M181.7,284.7h0.8c0.6,0,1.2-0.1,1.6-0.3c0.5-0.2,0.9-0.5,1.2-0.8c0.3-0.3,0.6-0.7,0.8-1.2c0.2-0.5,0.3-1,0.3-1.5
				c0-0.5-0.1-1-0.3-1.5c-0.2-0.5-0.4-0.9-0.8-1.2c-0.3-0.3-0.7-0.6-1.2-0.8s-1-0.3-1.6-0.3h-0.8V284.7z"/>
		</g>
		<g>
			<path style="fill:#C4C5C4;" d="M199.2,278.5h3.3v9.2h-3.3v-1c-0.7,0.9-1.6,1.3-2.8,1.3c-0.7,0-1.3-0.1-1.9-0.4s-1.1-0.6-1.5-1
				c-0.4-0.4-0.7-1-1-1.6c-0.2-0.6-0.4-1.3-0.4-2c0-0.7,0.1-1.3,0.3-1.9c0.2-0.6,0.5-1.1,1-1.6c0.4-0.4,0.9-0.8,1.5-1.1
				s1.2-0.4,1.9-0.4c1.2,0,2.1,0.4,2.9,1.2V278.5z M195.1,283c0,0.3,0.1,0.6,0.2,0.8c0.1,0.3,0.3,0.5,0.4,0.7
				c0.2,0.2,0.4,0.3,0.7,0.5c0.3,0.1,0.5,0.2,0.8,0.2c0.3,0,0.6-0.1,0.8-0.2c0.3-0.1,0.5-0.3,0.7-0.5s0.3-0.4,0.5-0.7
				c0.1-0.3,0.2-0.5,0.2-0.8s-0.1-0.6-0.2-0.8c-0.1-0.3-0.3-0.5-0.5-0.7c-0.2-0.2-0.4-0.3-0.7-0.5c-0.3-0.1-0.5-0.2-0.8-0.2
				c-0.3,0-0.6,0.1-0.8,0.2c-0.3,0.1-0.5,0.3-0.7,0.5c-0.2,0.2-0.3,0.4-0.4,0.7C195.1,282.5,195.1,282.8,195.1,283z"/>
		</g>
		<g>
			<path style="fill:#C4C5C4;" d="M210.8,280.8c-0.6-0.3-1.2-0.5-1.8-0.5c-0.3,0-0.5,0.1-0.7,0.2c-0.2,0.1-0.3,0.3-0.3,0.5
				c0,0.1,0,0.2,0,0.3c0,0.1,0.1,0.1,0.2,0.2c0.1,0.1,0.3,0.1,0.5,0.2c0.2,0,0.5,0.1,0.8,0.2c0.9,0.2,1.6,0.5,2,1
				c0.4,0.5,0.7,1.1,0.7,1.8c0,0.5-0.1,1-0.3,1.5c-0.2,0.4-0.5,0.8-0.9,1.1c-0.4,0.3-0.8,0.5-1.4,0.7c-0.5,0.2-1.1,0.2-1.8,0.2
				c-1.2,0-2.5-0.4-3.7-1.1l1.2-2.3c0.9,0.6,1.8,0.9,2.6,0.9c0.3,0,0.5-0.1,0.7-0.2c0.2-0.1,0.3-0.3,0.3-0.5c0-0.1,0-0.2,0-0.3
				c0-0.1-0.1-0.2-0.2-0.2c-0.1-0.1-0.2-0.1-0.4-0.2c-0.2-0.1-0.4-0.1-0.7-0.2c-1-0.2-1.7-0.5-2.1-0.9c-0.4-0.4-0.6-1-0.6-1.7
				c0-0.5,0.1-1,0.3-1.4s0.5-0.8,0.8-1.1s0.8-0.5,1.3-0.7c0.5-0.2,1.1-0.2,1.7-0.2c1,0,2,0.2,3,0.6L210.8,280.8z"/>
		</g>
		<g>
			<path style="fill:#C4C5C4;" d="M213.8,272.7h3.3v6.9c0.4-0.5,0.9-0.9,1.4-1.1c0.5-0.2,1-0.3,1.6-0.3c1.2,0,2,0.3,2.6,1
				c0.6,0.6,0.9,1.5,0.9,2.6v5.9h-3.3V283c0-0.5,0-0.8-0.1-1.1c-0.1-0.3-0.2-0.5-0.4-0.7c-0.3-0.3-0.6-0.4-1-0.4
				c-0.6,0-1,0.2-1.3,0.5s-0.4,0.8-0.4,1.4v4.9h-3.3V272.7z"/>
		</g>
	</g>
</g>
<g id="five" data-part="section" data-group="five">
	<g>
		<path fill="#313C4C" d="M279.7,238H38.9c-0.8,0-1.5-0.7-1.5-1.5s0.7-1.5,1.5-1.5h240.8c0.8,0,1.5,0.7,1.5,1.5
			S280.5,238,279.7,238z"/>
	</g>
	<g>
		<path fill="#C4C5C4" d="M76.4,249H5.3c-2.9,0-5.3-2.4-5.3-5.3v-14.3c0-2.9,2.4-5.3,5.3-5.3h71.1c2.9,0,5.3,2.4,5.3,5.3
			v14.3C81.8,246.6,79.4,249,76.4,249z"/>
	</g>
</g>
<g id="ten" data-part="section" data-group="ten">
	<g>
		<path fill="#313C4C" d="M279.7,205.8H38.9c-0.8,0-1.5-0.7-1.5-1.5s0.7-1.5,1.5-1.5h240.8c0.8,0,1.5,0.7,1.5,1.5
			S280.5,205.8,279.7,205.8z"/>
	</g>
	<g>
		<path fill="#C4C5C4" d="M76.4,216.8H5.3c-2.9,0-5.3-2.4-5.3-5.3v-14.3c0-2.9,2.4-5.3,5.3-5.3h71.1c2.9,0,5.3,2.4,5.3,5.3
			v14.3C81.8,214.4,79.4,216.8,76.4,216.8z"/>
	</g>
</g>
<g id="twenty" data-part="section" data-group="twenty">
	<g>
		<path fill="#313C4C" d="M279.7,141.4H38.9c-0.8,0-1.5-0.7-1.5-1.5s0.7-1.5,1.5-1.5h240.8c0.8,0,1.5,0.7,1.5,1.5
			S280.5,141.4,279.7,141.4z"/>
	</g>
	<g>
		<path fill="#C4C5C4" d="M76.4,152.3H5.3c-2.9,0-5.3-2.4-5.3-5.3v-14.3c0-2.9,2.4-5.3,5.3-5.3h71.1c2.9,0,5.3,2.4,5.3,5.3
			V147C81.8,149.9,79.4,152.3,76.4,152.3z"/>
	</g>
	<g>
		<path fill="#313C4C" d="M279.7,172.8H38.9c-0.4,0-0.8-0.3-0.8-0.8s0.3-0.8,0.8-0.8h240.8c0.4,0,0.8,0.3,0.8,0.8
			S280.1,172.8,279.7,172.8z"/>
	</g>
	<g>
		<path fill="#313C4C" d="M279.7,108.4H38.9c-0.4,0-0.8-0.3-0.8-0.8s0.3-0.8,0.8-0.8h240.8c0.4,0,0.8,0.3,0.8,0.8
			S280.1,108.4,279.7,108.4z"/>
	</g>
</g>
<g id="forty" data-part="section" data-group="forty">
	<g>
		<path fill="#313C4C" d="M279.7,12.5H38.9c-0.8,0-1.5-0.7-1.5-1.5s0.7-1.5,1.5-1.5h240.8c0.8,0,1.5,0.7,1.5,1.5
			S280.5,12.5,279.7,12.5z"/>
	</g>
	<g>
		<path fill="#313C4C" d="M279.7,43.9H38.9c-0.4,0-0.8-0.3-0.8-0.8s0.3-0.8,0.8-0.8h240.8c0.4,0,0.8,0.3,0.8,0.8
			S280.1,43.9,279.7,43.9z"/>
	</g>
	<g>
		<path fill="#313C4C" d="M279.7,76.2H38.9c-0.4,0-0.8-0.3-0.8-0.8s0.3-0.8,0.8-0.8h240.8c0.4,0,0.8,0.3,0.8,0.8
			S280.1,76.2,279.7,76.2z"/>
	</g>
	<g>
		<path fill="#C4C5C4" d="M76.4,24.9H5.3c-2.9,0-5.3-2.4-5.3-5.3V5.3C0,2.4,2.4,0,5.3,0h71.1c2.9,0,5.3,2.4,5.3,5.3v14.3
			C81.8,22.5,79.4,24.9,76.4,24.9z"/>
	</g>
</g>
<g id="yard_x5F_numbers">
	<g>
		<g>
			<path style="fill:#313C4C;" d="M44.8,232.9h-4.7l-0.2,1.5c0.2,0,0.4,0,0.6-0.1c0.2,0,0.4,0,0.6,0c0.7,0,1.3,0.1,1.9,0.4
				c0.6,0.2,1.1,0.6,1.5,1c0.4,0.4,0.7,0.9,1,1.5c0.2,0.6,0.4,1.2,0.4,1.9c0,0.7-0.1,1.4-0.4,2s-0.7,1.1-1.1,1.5
				c-0.5,0.4-1.1,0.7-1.8,1c-0.7,0.2-1.5,0.3-2.4,0.3c-0.8,0-1.6-0.1-2.3-0.3c-0.7-0.2-1.4-0.5-2.1-0.9l0.5-3.3
				c0.6,0.5,1.2,0.9,1.8,1.2c0.6,0.3,1.2,0.4,1.8,0.4c0.7,0,1.3-0.2,1.7-0.6c0.4-0.4,0.6-0.9,0.6-1.4c0-0.7-0.3-1.2-0.8-1.6
				s-1.3-0.6-2.2-0.6c-0.4,0-0.8,0-1.3,0.1c-0.4,0.1-0.9,0.2-1.3,0.4l1.1-7.3h7.1V232.9z"/>
		</g>
	</g>
	<g>
		<g>
			<path style="fill:#313C4C;" d="M33.8,200.7h-2v-3h5.5v13.6h-3.5V200.7z"/>
		</g>
		<g>
			<path style="fill:#313C4C;" d="M40.9,204.5c0-1.1,0.1-2.1,0.4-2.9c0.3-0.9,0.7-1.6,1.2-2.3c0.5-0.6,1.1-1.1,1.8-1.4
				s1.5-0.5,2.3-0.5c0.8,0,1.6,0.2,2.3,0.5s1.3,0.8,1.8,1.4c0.5,0.6,0.9,1.4,1.2,2.3c0.3,0.9,0.4,1.9,0.4,2.9s-0.1,2.1-0.4,2.9
				c-0.3,0.9-0.7,1.6-1.2,2.3c-0.5,0.6-1.1,1.1-1.8,1.5s-1.5,0.5-2.3,0.5c-0.9,0-1.6-0.2-2.3-0.5s-1.3-0.8-1.8-1.5
				c-0.5-0.6-0.9-1.4-1.2-2.3C41,206.6,40.9,205.6,40.9,204.5z M44.4,204.5c0,0.6,0.1,1.1,0.2,1.6c0.1,0.5,0.3,0.9,0.5,1.3
				c0.2,0.4,0.4,0.6,0.7,0.8c0.3,0.2,0.6,0.3,0.9,0.3c0.3,0,0.6-0.1,0.9-0.3s0.5-0.5,0.7-0.8c0.2-0.4,0.3-0.8,0.5-1.3s0.2-1,0.2-1.6
				c0-0.6-0.1-1.1-0.2-1.6s-0.3-0.9-0.5-1.3c-0.2-0.4-0.4-0.6-0.7-0.8s-0.6-0.3-0.9-0.3c-0.3,0-0.7,0.1-0.9,0.3
				c-0.3,0.2-0.5,0.5-0.7,0.8c-0.2,0.4-0.4,0.8-0.5,1.3C44.4,203.4,44.4,203.9,44.4,204.5z"/>
		</g>
	</g>
	<g>
		<g>
			<path style="fill:#313C4C;" d="M40.1,146.6H29.1l3.4-3.5c0.9-0.9,1.6-1.7,2.1-2.3s0.9-1.2,1.1-1.6c0.2-0.4,0.4-0.8,0.5-1.1
				s0.1-0.5,0.1-0.7c0-0.2,0-0.4-0.1-0.6c-0.1-0.2-0.2-0.4-0.3-0.5c-0.1-0.1-0.3-0.3-0.5-0.4s-0.4-0.1-0.7-0.1
				c-0.5,0-0.9,0.2-1.1,0.5c-0.3,0.3-0.4,0.7-0.4,1.2c0,0.1,0,0.3,0.1,0.6h-3.9c0-0.8,0.1-1.5,0.4-2.2c0.3-0.6,0.6-1.2,1.1-1.7
				c0.5-0.5,1-0.8,1.7-1.1c0.6-0.3,1.3-0.4,2.1-0.4c0.8,0,1.5,0.1,2.1,0.4c0.6,0.2,1.2,0.6,1.7,1c0.5,0.4,0.8,0.9,1.1,1.5
				c0.3,0.6,0.4,1.2,0.4,1.9c0,0.7-0.2,1.4-0.5,2.1c-0.3,0.6-0.8,1.3-1.5,1.9l-2.2,2.1h4.4V146.6z"/>
		</g>
		<g>
			<path style="fill:#313C4C;" d="M41.2,139.8c0-1.1,0.1-2.1,0.4-2.9c0.3-0.9,0.7-1.6,1.2-2.3c0.5-0.6,1.1-1.1,1.8-1.4
				s1.5-0.5,2.3-0.5c0.8,0,1.6,0.2,2.3,0.5s1.3,0.8,1.8,1.4c0.5,0.6,0.9,1.4,1.2,2.3c0.3,0.9,0.4,1.9,0.4,2.9s-0.1,2.1-0.4,2.9
				c-0.3,0.9-0.7,1.6-1.2,2.3c-0.5,0.6-1.1,1.1-1.8,1.5s-1.5,0.5-2.3,0.5c-0.9,0-1.6-0.2-2.3-0.5s-1.3-0.8-1.8-1.5
				c-0.5-0.6-0.9-1.4-1.2-2.3C41.4,141.8,41.2,140.8,41.2,139.8z M44.7,139.8c0,0.6,0.1,1.1,0.2,1.6c0.1,0.5,0.3,0.9,0.5,1.3
				c0.2,0.4,0.4,0.6,0.7,0.8c0.3,0.2,0.6,0.3,0.9,0.3c0.3,0,0.6-0.1,0.9-0.3s0.5-0.5,0.7-0.8c0.2-0.4,0.3-0.8,0.5-1.3s0.2-1,0.2-1.6
				c0-0.6-0.1-1.1-0.2-1.6s-0.3-0.9-0.5-1.3c-0.2-0.4-0.4-0.6-0.7-0.8s-0.6-0.3-0.9-0.3c-0.3,0-0.7,0.1-0.9,0.3
				c-0.3,0.2-0.5,0.5-0.7,0.8c-0.2,0.4-0.4,0.8-0.5,1.3C44.8,138.6,44.7,139.2,44.7,139.8z"/>
		</g>
	</g>
	<g>
		<g>
			<path style="fill:#313C4C;" d="M38.7,13.9h1.6v2.7h-1.6v2.8h-3.3v-2.8h-6.6v-2.3l5.2-8.5h4.6V13.9z M35.4,13.9V8.6l-3.1,5.3H35.4
				z"/>
		</g>
		<g>
			<path style="fill:#313C4C;" d="M41.2,12.6c0-1.1,0.1-2.1,0.4-2.9C42,8.8,42.3,8,42.9,7.4C43.4,6.8,44,6.3,44.7,6s1.5-0.5,2.3-0.5
				c0.8,0,1.6,0.2,2.3,0.5s1.3,0.8,1.8,1.4C51.6,8,52,8.8,52.3,9.7c0.3,0.9,0.4,1.9,0.4,2.9s-0.1,2.1-0.4,2.9
				c-0.3,0.9-0.7,1.6-1.2,2.3c-0.5,0.6-1.1,1.1-1.8,1.5s-1.5,0.5-2.3,0.5c-0.9,0-1.6-0.2-2.3-0.5s-1.3-0.8-1.8-1.5
				c-0.5-0.6-0.9-1.4-1.2-2.3C41.4,14.7,41.2,13.7,41.2,12.6z M44.7,12.6c0,0.6,0.1,1.1,0.2,1.6c0.1,0.5,0.3,0.9,0.5,1.3
				c0.2,0.4,0.4,0.6,0.7,0.8c0.3,0.2,0.6,0.3,0.9,0.3c0.3,0,0.6-0.1,0.9-0.3s0.5-0.5,0.7-0.8c0.2-0.4,0.3-0.8,0.5-1.3s0.2-1,0.2-1.6
				c0-0.6-0.1-1.1-0.2-1.6s-0.3-0.9-0.5-1.3c-0.2-0.4-0.4-0.6-0.7-0.8S47.3,8.6,47,8.6c-0.3,0-0.7,0.1-0.9,0.3
				c-0.3,0.2-0.5,0.5-0.7,0.8c-0.2,0.4-0.4,0.8-0.5,1.3C44.8,11.5,44.7,12,44.7,12.6z"/>
		</g>
	</g>
</g>
<g id="cones">
	<g id="cones-40">
		<g>
			<path style="fill:#F68A2B;" d="M277.2,142.9c0,0-0.9,1.1-5.2,1.1c-4.3,0-5.2-1.1-5.2-1.1l3.7-13.1c0,0,0.5-0.3,1.5-0.3
				s1.5,0.3,1.5,0.3L277.2,142.9z"/>
		</g>
		<g>
			<path style="fill:#F68A2B;" d="M277.2,14c0,0-0.9,1.1-5.2,1.1c-4.3,0-5.2-1.1-5.2-1.1l3.7-13.1c0,0,0.5-0.3,1.5-0.3
				s1.5,0.3,1.5,0.3L277.2,14z"/>
		</g>
		<g>
			<path style="fill:#F68A2B;" d="M277.2,207.2c0,0-0.9,1.1-5.2,1.1c-4.3,0-5.2-1.1-5.2-1.1l3.7-13.1c0,0,0.5-0.3,1.5-0.3
				s1.5,0.3,1.5,0.3L277.2,207.2z"/>
		</g>
		<g>
			<path style="fill:#F68A2B;" d="M277.2,240c0,0-0.9,1.1-5.2,1.1c-4.3,0-5.2-1.1-5.2-1.1l3.7-13.1c0,0,0.5-0.3,1.5-0.3
				s1.5,0.3,1.5,0.3L277.2,240z"/>
		</g>
	</g>
</g>
<g id="outer-dimension_1_">
	<rect id="outer-dimension-frame" x="328.4" y="0.6" style="fill:none;" width="269.1" height="295.4"/>
</g>
<g id="field-lines-magility_1_">
	<g>
		<rect x="338.1" y="65.6" style="fill:#C4C5C4;" width="17.9" height="2.2"/>
	</g>
	<g>
		<polygon style="fill:#C4C5C4;" points="338.1,130.9 356,130.9 356,128.7 338,128.7 		"/>
	</g>
	<g>
		<polygon style="fill:#C4C5C4;" points="338.1,86.6 338.1,88.8 356,88.8 356,86.6 		"/>
	</g>
	<g>
		<rect x="334.7" y="252.9" style="fill:#C4C5C4;" width="254.3" height="6.6"/>
	</g>
	<g>
		<polygon style="fill:#C4C5C4;" points="356,107.7 338.1,107.7 338.1,109.8 356,109.8 		"/>
	</g>
	<g>
		<polygon style="fill:#C4C5C4;" points="584.8,192 566.9,192 566.9,194.1 584.8,194.1 		"/>
	</g>
	<g>
		<polygon style="fill:#C4C5C4;" points="589,149.8 568,149.8 568,141.9 565.8,141.9 565.8,149.8 357.1,149.8 357.1,141.9
			354.9,141.9 354.9,149.8 334.7,149.8 334.7,152 354.9,152 354.9,159.8 357.1,159.8 357.1,151.9 565.8,152 565.8,159.8
			567.9,159.8 567.9,152 589,152 		"/>
	</g>
	<g>
		<polygon style="fill:#C4C5C4;" points="589,44.5 567.9,44.5 567.9,36.6 565.8,36.6 565.8,44.5 357.1,44.5 357.1,36.6 354.9,36.6
			354.9,44.5 334.7,44.5 334.7,46.7 354.9,46.7 354.9,54.5 357.1,54.5 357.1,46.7 565.8,46.7 565.8,54.5 568,54.5 568,46.7
			589,46.7 		"/>
	</g>
	<g>
		<rect x="338.1" y="213" style="fill:#C4C5C4;" width="17.9" height="2.2"/>
	</g>
	<g>
		<polygon style="fill:#C4C5C4;" points="584.8,170.8 566.9,170.8 566.9,173.1 584.8,173.1 		"/>
	</g>
	<g>
		<rect x="566.9" y="234.1" style="fill:#C4C5C4;" width="17.9" height="2.2"/>
	</g>
	<g>
		<polygon style="fill:#C4C5C4;" points="566.9,213 566.9,215.2 584.8,215.2 584.8,213 		"/>
	</g>
	<g>
		<rect x="338.1" y="234.1" style="fill:#C4C5C4;" width="17.9" height="2.2"/>
	</g>
	<g>
		<rect x="566.9" y="86.6" style="fill:#C4C5C4;" width="17.9" height="2.2"/>
	</g>
	<g>
		<polygon style="fill:#C4C5C4;" points="566.9,130.9 584.8,130.9 584.8,128.7 566.9,128.7 		"/>
	</g>
	<g>
		<rect x="566.9" y="65.6" style="fill:#C4C5C4;" width="17.9" height="2.2"/>
	</g>
	<g>
		<polygon style="fill:#C4C5C4;" points="356,170.8 338.1,170.8 338.1,173.1 356,173.1 		"/>
	</g>
	<g>
		<polygon style="fill:#C4C5C4;" points="356,192 338.1,192 338.1,194.1 356,194.1 		"/>
	</g>
	<g>
		<polygon style="fill:#C4C5C4;" points="584.8,107.7 566.9,107.7 566.9,109.9 584.8,109.8 		"/>
	</g>
</g>
<g id="cones-magility_1_">
	<g id="cone-5">
		<path style="fill:#F68A2B;" d="M572.9,256.5C572.9,256.4,572.9,256.4,572.9,256.5C572.9,256.4,572.9,256.4,572.9,256.5
			C572.9,256.4,572.9,256.4,572.9,256.5c-0.2-0.4-3.4-7.1-3.5-7.2c-0.2-0.4-0.6-0.6-1-0.6H568c-0.4,0-0.8,0.3-1,0.7
			c-0.1,0.1-3.5,7.1-3.5,7.1c0,0,0,0,0,0c-0.1,0.3-0.2,0.6-0.2,1c0,1.8,2.2,3.2,4.9,3.2c2.7,0,4.9-1.4,4.9-3.2
			C573.1,257.1,573,256.7,572.9,256.5z"/>
	</g>
	<g id="cone-4">
		<path style="fill:#F68A2B;" d="M570.8,44.4C570.8,44.4,570.8,44.4,570.8,44.4C570.8,44.4,570.8,44.4,570.8,44.4
			C570.8,44.4,570.8,44.4,570.8,44.4c-0.2-0.4-3.4-7-3.5-7.2c-0.2-0.4-0.6-0.6-1-0.6H566c-0.4,0-0.8,0.3-1,0.6
			c-0.1,0.1-3.4,7.1-3.4,7.1c0,0,0,0,0,0c-0.1,0.3-0.2,0.6-0.2,1c0,1.8,2.2,3.2,4.9,3.2s4.9-1.4,4.9-3.2
			C571.1,45,571,44.7,570.8,44.4z"/>
	</g>
	<g id="cone-3">
		<path style="fill:#F68A2B;" d="M472.1,152.1C472.1,152.1,472.1,152.1,472.1,152.1C472.1,152.1,472.1,152.1,472.1,152.1
			C472.1,152,472,152,472.1,152.1c-0.2-0.4-3.4-7-3.5-7.2c-0.2-0.4-0.6-0.6-1-0.6h-0.3c-0.4,0-0.8,0.3-1,0.6
			c-0.1,0.1-3.4,7.1-3.4,7.1c0,0,0,0,0,0c-0.1,0.3-0.2,0.6-0.2,1c0,1.8,2.2,3.2,4.9,3.2s4.9-1.4,4.9-3.2
			C472.3,152.7,472.2,152.4,472.1,152.1z"/>
	</g>
	<g id="cone-2">
		<path style="fill:#F68A2B;" d="M360.5,44.4C360.5,44.4,360.5,44.4,360.5,44.4C360.5,44.4,360.5,44.4,360.5,44.4
			C360.5,44.4,360.5,44.4,360.5,44.4c-0.2-0.4-3.4-7-3.5-7.2c-0.2-0.4-0.6-0.6-1-0.6h-0.3c-0.4,0-0.8,0.3-1,0.6
			c-0.1,0.1-3.4,7.1-3.4,7.1c0,0,0,0,0,0c-0.1,0.3-0.2,0.6-0.2,1c0,1.8,2.2,3.2,4.9,3.2s4.9-1.4,4.9-3.2
			C360.7,45,360.7,44.7,360.5,44.4z"/>
	</g>
	<g id="cone-1">
		<path style="fill:#F68A2B;" d="M360.5,255.4C360.5,255.4,360.5,255.4,360.5,255.4C360.5,255.4,360.5,255.4,360.5,255.4
			C360.5,255.4,360.5,255.4,360.5,255.4c-0.2-0.4-3.4-7-3.5-7.2c-0.2-0.4-0.6-0.6-1-0.6h-0.3c-0.4,0-0.8,0.3-1,0.6
			c-0.1,0.1-3.4,7.1-3.4,7.1c0,0,0,0,0,0c-0.1,0.3-0.2,0.6-0.2,1c0,1.8,2.2,3.2,4.9,3.2s4.9-1.4,4.9-3.2
			C360.7,256,360.7,255.7,360.5,255.4z"/>
	</g>
</g>
<g id="start-stop_1_">
	<circle id="start" style="fill:#3DB54A;" cx="346.6" cy="269.8" r="7.5"/>
	<polygon id="stop" style="fill:#EC2227;" points="582.9,262.3 576.8,262.3 572.6,266.5 572.6,272.6 576.8,276.8 582.9,276.8
		587.1,272.6 587.1,266.5 	"/>
</g>
<g id="cod_1_" data-part="section" data-group="cod">
	<path fill="#C4CB36" d="M582.1,53.6c-0.1-15.4-2.7-25.5-14.8-28.5c-15.8-3.9-29.3,16.5-42.7,43.5l6.9,4.7
		C543,50,554.9,30.6,565.4,33.1c4.7,1.1,8.3,3.4,8.5,20.5c0.1,13.6,1.3,137.5,1.7,186l8.3-0.1C583.4,191,582.2,67.2,582.1,53.6z"/>
	<g>
		<g>
			<polygon fill="#C4CB36" points="567.4,238 579.8,259.5 592.2,238 			"/>
		</g>
	</g>
	<path fill="#C4CB36" d="M523.2,71.4c-3.5,7.2-7.1,14.9-10.6,22.6c-14.1,30.5-30,65.2-43.9,65.2c0,0,0,0,0,0
		c-5.3,0-10.7-3.7-16.2-9.8l-7.5-1.5l-0.8,4.3c7.8,9.4,15.8,15.2,24.5,15.2c0,0,0,0,0.1,0c19.2-0.1,34.8-34,51.4-70
		c3.3-7.1,6.6-14.4,10-21.4L523.2,71.4z"/>
</g>
<g id="initial-burst_1_" data-part="section" data-group="initial_burst">
	<g>
		<g>
			<rect x="342.5" y="57.3" fill="#C4CB36" width="8.3" height="201.8"/>
		</g>
	</g>
	<g>
		<g>
			<polygon fill="#C4CB36" points="359,60.9 346.6,39.4 334.2,60.9 			"/>
		</g>
	</g>
</g>
<g id="in-out_1_" data-part="section" data-group="in_out">
	<path fill="#C4CB36" d="M370.3,30.6l5.7-0.3c-0.3-0.2-0.6-0.5-0.9-0.8c-3-2.6-8-6.9-16.4-6.9c-13.9,0-17.1,6.9-18.8,10.6
		c-0.2,0.5-0.6,1.2-0.7,1.4c0,0,0.1-0.1,0.2-0.2l4.8,6.7c1.7-1.2,2.5-2.9,3.2-4.4c1.4-3,2.7-5.8,11.3-5.8c5.3,0,8.5,2.7,11,4.9
		c0.3,0.3,0.6,0.5,0.9,0.8L370.3,30.6z"/>
	<path fill="#C4CB36" d="M390.7,53.9l6.3,1.2c-5.7-8.7-11.6-16.3-17.8-22l-5.8,0.3l0.3,5.8c5.5,5.1,10.8,11.9,16,19.9
		L390.7,53.9z"/>
	<path fill="#C4CB36" d="M408.7,84.3l5.8,1.1c-5-9.4-10.1-18.6-15.4-27l-6.2-1.2l-1,5.3c5.3,8.4,10.6,17.9,15.7,27.5
		L408.7,84.3z"/>
	<path fill="#C4CB36" d="M425.5,116.4l6.1,1.2c-3.6-6.5-7.2-13.3-10.7-20c-1.6-3-3.1-5.9-4.7-8.9l-5.2-1l-1.3,6.4
		c1.3,2.4,2.6,4.9,3.8,7.3c3.7,7,7.3,13.9,10.9,20.4L425.5,116.4z"/>
	<path fill="#C4CB36" d="M442.7,144.6l6.8,1.3c-5.3-6.7-10.7-15.5-16.1-25l-5.6-1.1l-1.2,5.9c5,8.9,10,17,15.2,23.7
		L442.7,144.6z"/>
</g>
</svg>
